<svg class="animated" id="freepik_stories-data-report" xmlns="http://www.w3.org/2000/svg" viewBox="0 0 500 500" version="1.1" xmlns:xlink="http://www.w3.org/1999/xlink" xmlns:svgjs="http://svgjs.com/svgjs"><style>svg#freepik_stories-data-report:not(.animated) .animable {opacity: 0;}svg#freepik_stories-data-report.animated #freepik--background-simple--inject-14 {animation: 1s 1 forwards cubic-bezier(.36,-0.01,.5,1.38) zoomOut;animation-delay: 0s;}svg#freepik_stories-data-report.animated #freepik--Charts--inject-14 {animation: 1s 1 forwards cubic-bezier(.36,-0.01,.5,1.38) slideDown;animation-delay: 0s;}svg#freepik_stories-data-report.animated #freepik--Shadow--inject-14 {animation: 1s 1 forwards cubic-bezier(.36,-0.01,.5,1.38) slideDown;animation-delay: 0s;}svg#freepik_stories-data-report.animated #freepik--Character--inject-14 {animation: 1s 1 forwards cubic-bezier(.36,-0.01,.5,1.38) fadeIn;animation-delay: 0s;}            @keyframes zoomOut {                0% {                    opacity: 0;                    transform: scale(1.5);                }                100% {                    opacity: 1;                    transform: scale(1);                }            }                    @keyframes slideDown {                0% {                    opacity: 0;                    transform: translateY(-30px);                }                100% {                    opacity: 1;                    transform: translateY(0);                }            }                    @keyframes fadeIn {                0% {                    opacity: 0;                }                100% {                    opacity: 1;                }            }        </style><g id="freepik--background-simple--inject-14" class="animable" style="transform-origin: 247.472px 212.352px;"><path d="M358.82,83C311.06,48.7,229.53,39.83,187,54.17,110.3,80.05,98,130.34,98.83,175.3s58.46,83.57,73.8,122.87,43.47,92.13,97.8,75.95,52-74.68,68.46-114.18,59.51-80,57.17-116.26C394.43,118.36,379.92,98.21,358.82,83Z" style="fill: rgb(146, 227, 169); transform-origin: 247.472px 212.352px;" id="el9a7qeh1snbd" class="animable"></path><g id="el9xa9tgdfse"><path d="M358.82,83C311.06,48.7,229.53,39.83,187,54.17,110.3,80.05,98,130.34,98.83,175.3s58.46,83.57,73.8,122.87,43.47,92.13,97.8,75.95,52-74.68,68.46-114.18,59.51-80,57.17-116.26C394.43,118.36,379.92,98.21,358.82,83Z" style="fill: rgb(255, 255, 255); opacity: 0.7; transform-origin: 247.472px 212.352px;" class="animable"></path></g></g><g id="freepik--Charts--inject-14" class="animable" style="transform-origin: 249.25px 218.465px;"><g id="elxwvhz9l4qv"><rect x="88.68" y="116.71" width="148.47" height="111.9" rx="8.55" style="opacity: 0.2; transform-origin: 162.915px 172.66px;" class="animable"></rect></g><rect x="85" y="110.82" width="148.47" height="111.9" rx="8.55" style="fill: rgb(255, 255, 255); stroke: rgb(38, 50, 56); stroke-linecap: round; stroke-linejoin: round; transform-origin: 159.235px 166.77px;" id="ele39c8o2nloe" class="animable"></rect><path d="M133,162,101.26,172.3a33.4,33.4,0,0,1,21.44-42.08A31.71,31.71,0,0,1,133,128.58Z" style="fill: rgb(146, 227, 169); stroke: rgb(38, 50, 56); stroke-linecap: round; stroke-linejoin: round; transform-origin: 116.313px 150.44px;" id="el4co1bc3zfzp" class="animable"></path><path d="M133,162l19.63,27A33.39,33.39,0,0,1,106,181.61a31.75,31.75,0,0,1-4.74-9.31Z" style="fill: rgb(255, 255, 255); stroke: rgb(38, 50, 56); stroke-linecap: round; stroke-linejoin: round; transform-origin: 126.945px 178.686px;" id="el85c5158zk63" class="animable"></path><path d="M133,162l31.76-10.32A32.87,32.87,0,0,1,152.65,189Z" style="fill: rgb(38, 50, 56); stroke: rgb(38, 50, 56); stroke-linecap: round; stroke-linejoin: round; transform-origin: 149.744px 170.34px;" id="elirqtokv6vjr" class="animable"></path><path d="M133,162v-33.4a32.88,32.88,0,0,1,31.76,23.08Z" style="fill: rgb(255, 255, 255); stroke: rgb(38, 50, 56); stroke-linecap: round; stroke-linejoin: round; transform-origin: 148.88px 145.299px;" id="elipfvms8oarh" class="animable"></path><circle cx="133.05" cy="161.98" r="20.82" style="fill: rgb(255, 255, 255); stroke: rgb(38, 50, 56); stroke-linecap: round; stroke-linejoin: round; transform-origin: 133.05px 161.98px;" id="elun7ld4oy14" class="animable"></circle><rect x="175.8" y="126.56" width="45.75" height="3.79" style="fill: rgb(146, 227, 169); stroke: rgb(38, 50, 56); stroke-linecap: round; stroke-linejoin: round; transform-origin: 198.675px 128.455px;" id="eltopsvwcf7l" class="animable"></rect><rect x="175.8" y="134.67" width="35.91" height="3.79" style="fill: rgb(38, 50, 56); stroke: rgb(38, 50, 56); stroke-linecap: round; stroke-linejoin: round; transform-origin: 193.755px 136.565px;" id="elu00hv0k5n7" class="animable"></rect><rect x="175.8" y="142.78" width="26.39" height="3.79" style="fill: rgb(255, 255, 255); stroke: rgb(38, 50, 56); stroke-linecap: round; stroke-linejoin: round; transform-origin: 188.995px 144.675px;" id="elpqdgg0mff4" class="animable"></rect><rect x="175.8" y="150.89" width="37.5" height="3.79" style="fill: rgb(146, 227, 169); stroke: rgb(38, 50, 56); stroke-linecap: round; stroke-linejoin: round; transform-origin: 194.55px 152.785px;" id="el44s7s3kefq5" class="animable"></rect><rect x="175.8" y="159" width="17.82" height="3.79" style="fill: rgb(38, 50, 56); stroke: rgb(38, 50, 56); stroke-linecap: round; stroke-linejoin: round; transform-origin: 184.71px 160.895px;" id="elf75yka2flhd" class="animable"></rect><rect x="175.8" y="167.12" width="45.75" height="3.79" style="fill: rgb(255, 255, 255); stroke: rgb(38, 50, 56); stroke-linecap: round; stroke-linejoin: round; transform-origin: 198.675px 169.015px;" id="elz51y2lio24r" class="animable"></rect><rect x="175.8" y="175.23" width="33.69" height="3.79" style="fill: rgb(146, 227, 169); stroke: rgb(38, 50, 56); stroke-linecap: round; stroke-linejoin: round; transform-origin: 192.645px 177.125px;" id="elakzyovkohi" class="animable"></rect><rect x="175.8" y="183.34" width="29.44" height="3.79" style="fill: rgb(38, 50, 56); stroke: rgb(38, 50, 56); stroke-linecap: round; stroke-linejoin: round; transform-origin: 190.52px 185.235px;" id="el1qsx5f1hgiu" class="animable"></rect><rect x="175.8" y="191.45" width="45.75" height="3.79" style="fill: rgb(255, 255, 255); stroke: rgb(38, 50, 56); stroke-linecap: round; stroke-linejoin: round; transform-origin: 198.675px 193.345px;" id="elppqqs3osq0q" class="animable"></rect><line x1="116.02" y1="202.5" x2="151.48" y2="202.5" style="fill: none; stroke: rgb(38, 50, 56); stroke-linecap: round; stroke-linejoin: round; transform-origin: 133.75px 202.5px;" id="elj4k1jxur38l" class="animable"></line><line x1="111" y1="207.5" x2="156.5" y2="207.5" style="fill: none; stroke: rgb(38, 50, 56); stroke-linecap: round; stroke-linejoin: round; transform-origin: 133.75px 207.5px;" id="elngg6h2ze7rr" class="animable"></line><line x1="177.02" y1="202.5" x2="212.48" y2="202.5" style="fill: none; stroke: rgb(38, 50, 56); stroke-linecap: round; stroke-linejoin: round; transform-origin: 194.75px 202.5px;" id="elvdxk8r54tsk" class="animable"></line><line x1="172" y1="207.5" x2="217.5" y2="207.5" style="fill: none; stroke: rgb(38, 50, 56); stroke-linecap: round; stroke-linejoin: round; transform-origin: 194.75px 207.5px;" id="elw81je1ddo5" class="animable"></line><g id="el2sinyojy9r9"><rect x="107.96" y="275.28" width="129.92" height="97.92" rx="8.55" style="opacity: 0.2; transform-origin: 172.92px 324.24px;" class="animable"></rect></g><rect x="103.54" y="270.14" width="129.92" height="97.92" rx="8.55" style="fill: rgb(255, 255, 255); stroke: rgb(38, 50, 56); stroke-linecap: round; stroke-linejoin: round; transform-origin: 168.5px 319.1px;" id="elpjt5kbxgzq" class="animable"></rect><line x1="112.44" y1="316.69" x2="129.77" y2="316.69" style="fill: none; stroke: rgb(38, 50, 56); stroke-linecap: round; stroke-linejoin: round; transform-origin: 121.105px 316.69px;" id="elsm0zi76haee" class="animable"></line><line x1="112.44" y1="320.61" x2="139.85" y2="320.61" style="fill: none; stroke: rgb(38, 50, 56); stroke-linecap: round; stroke-linejoin: round; transform-origin: 126.145px 320.61px;" id="eloz5yhx2yqyf" class="animable"></line><line x1="112.44" y1="324.52" x2="129.77" y2="324.52" style="fill: none; stroke: rgb(38, 50, 56); stroke-linecap: round; stroke-linejoin: round; transform-origin: 121.105px 324.52px;" id="ellr60cp0464" class="animable"></line><line x1="112.44" y1="328.43" x2="137.44" y2="328.43" style="fill: none; stroke: rgb(38, 50, 56); stroke-linecap: round; stroke-linejoin: round; transform-origin: 124.94px 328.43px;" id="el6b20asy0pp" class="animable"></line><line x1="112.44" y1="332.35" x2="129.77" y2="332.35" style="fill: none; stroke: rgb(38, 50, 56); stroke-linecap: round; stroke-linejoin: round; transform-origin: 121.105px 332.35px;" id="el72aa773kr8g" class="animable"></line><line x1="112.44" y1="336.26" x2="143.06" y2="336.26" style="fill: none; stroke: rgb(38, 50, 56); stroke-linecap: round; stroke-linejoin: round; transform-origin: 127.75px 336.26px;" id="elgu7mlkvg4ti" class="animable"></line><line x1="155.84" y1="316.69" x2="173.17" y2="316.69" style="fill: none; stroke: rgb(38, 50, 56); stroke-linecap: round; stroke-linejoin: round; transform-origin: 164.505px 316.69px;" id="el3g3mvhhvdst" class="animable"></line><line x1="155.84" y1="320.61" x2="183.25" y2="320.61" style="fill: none; stroke: rgb(38, 50, 56); stroke-linecap: round; stroke-linejoin: round; transform-origin: 169.545px 320.61px;" id="elg7xjrsl2xc" class="animable"></line><line x1="155.84" y1="324.52" x2="173.17" y2="324.52" style="fill: none; stroke: rgb(38, 50, 56); stroke-linecap: round; stroke-linejoin: round; transform-origin: 164.505px 324.52px;" id="elxrgy0cm3qsk" class="animable"></line><line x1="155.84" y1="328.43" x2="180.84" y2="328.43" style="fill: none; stroke: rgb(38, 50, 56); stroke-linecap: round; stroke-linejoin: round; transform-origin: 168.34px 328.43px;" id="elaw1b7mmzbdq" class="animable"></line><line x1="155.84" y1="332.35" x2="173.17" y2="332.35" style="fill: none; stroke: rgb(38, 50, 56); stroke-linecap: round; stroke-linejoin: round; transform-origin: 164.505px 332.35px;" id="el6imt32w2n1g" class="animable"></line><line x1="155.84" y1="336.26" x2="186.46" y2="336.26" style="fill: none; stroke: rgb(38, 50, 56); stroke-linecap: round; stroke-linejoin: round; transform-origin: 171.15px 336.26px;" id="eljaf78mgek9g" class="animable"></line><line x1="199.24" y1="316.69" x2="216.57" y2="316.69" style="fill: none; stroke: rgb(38, 50, 56); stroke-linecap: round; stroke-linejoin: round; transform-origin: 207.905px 316.69px;" id="elcrabjto5z7j" class="animable"></line><line x1="199.24" y1="320.61" x2="226.64" y2="320.61" style="fill: none; stroke: rgb(38, 50, 56); stroke-linecap: round; stroke-linejoin: round; transform-origin: 212.94px 320.61px;" id="eli9j8782t1d" class="animable"></line><line x1="199.24" y1="324.52" x2="216.57" y2="324.52" style="fill: none; stroke: rgb(38, 50, 56); stroke-linecap: round; stroke-linejoin: round; transform-origin: 207.905px 324.52px;" id="elxm3jocep1q" class="animable"></line><line x1="199.24" y1="328.43" x2="224.23" y2="328.43" style="fill: none; stroke: rgb(38, 50, 56); stroke-linecap: round; stroke-linejoin: round; transform-origin: 211.735px 328.43px;" id="elaz4w08zlmq" class="animable"></line><line x1="199.24" y1="332.35" x2="216.57" y2="332.35" style="fill: none; stroke: rgb(38, 50, 56); stroke-linecap: round; stroke-linejoin: round; transform-origin: 207.905px 332.35px;" id="elas4lq1arog5" class="animable"></line><line x1="199.24" y1="336.26" x2="229.86" y2="336.26" style="fill: none; stroke: rgb(38, 50, 56); stroke-linecap: round; stroke-linejoin: round; transform-origin: 214.55px 336.26px;" id="eljhdqqhugh6j" class="animable"></line><rect x="111.33" y="303.83" width="33.54" height="6.71" style="fill: rgb(38, 50, 56); transform-origin: 128.1px 307.185px;" id="el7r3gcmkxn0r" class="animable"></rect><rect x="155.49" y="303.83" width="33.54" height="6.71" style="fill: rgb(38, 50, 56); transform-origin: 172.26px 307.185px;" id="elo3k1r0nan48" class="animable"></rect><rect x="199.65" y="303.83" width="33.54" height="6.71" style="fill: rgb(38, 50, 56); transform-origin: 216.42px 307.185px;" id="elmwro1batk1e" class="animable"></rect><line x1="150.1" y1="303.44" x2="150.1" y2="337.39" style="fill: none; stroke: rgb(38, 50, 56); stroke-linecap: round; stroke-linejoin: round; transform-origin: 150.1px 320.415px;" id="elru37camgy" class="animable"></line><line x1="193.9" y1="303.44" x2="193.9" y2="337.39" style="fill: none; stroke: rgb(38, 50, 56); stroke-linecap: round; stroke-linejoin: round; transform-origin: 193.9px 320.415px;" id="elozgcxbtocxg" class="animable"></line><path d="M125,287.93l7.26-2.36a7.63,7.63,0,1,1-9.62-4.9,7.28,7.28,0,0,1,2.36-.37Z" style="fill: rgb(146, 227, 169); stroke: rgb(38, 50, 56); stroke-miterlimit: 10; stroke-width: 0.5px; transform-origin: 125.003px 287.927px;" id="elr4bv9ppmh3q" class="animable"></path><path d="M125,287.93V280.3a7.51,7.51,0,0,1,7.26,5.27Z" style="fill: rgb(38, 50, 56); stroke: rgb(38, 50, 56); stroke-miterlimit: 10; stroke-width: 0.5px; transform-origin: 128.63px 284.115px;" id="eljl56xal01ok" class="animable"></path><path d="M198.5,287.93l7.26-2.36a7.63,7.63,0,1,1-9.61-4.9,7.22,7.22,0,0,1,2.35-.37Z" style="fill: rgb(146, 227, 169); stroke: rgb(38, 50, 56); stroke-miterlimit: 10; stroke-width: 0.5px; transform-origin: 198.503px 287.929px;" id="elvbrwf0zm32e" class="animable"></path><path d="M198.5,287.93V280.3a7.5,7.5,0,0,1,7.26,5.27Z" style="fill: rgb(38, 50, 56); stroke: rgb(38, 50, 56); stroke-miterlimit: 10; stroke-width: 0.5px; transform-origin: 202.13px 284.115px;" id="el5498f6uijsj" class="animable"></path><path d="M149.52,287.93v7.63a7.63,7.63,0,1,1,0-15.26h0Z" style="fill: rgb(146, 227, 169); stroke: rgb(38, 50, 56); stroke-miterlimit: 10; stroke-width: 0.5px; transform-origin: 145.705px 287.93px;" id="ellvg23w7y3mq" class="animable"></path><path d="M149.52,287.93V280.3a7.63,7.63,0,1,1,0,15.26h0Z" style="fill: rgb(38, 50, 56); stroke: rgb(38, 50, 56); stroke-miterlimit: 10; stroke-width: 0.5px; transform-origin: 153.335px 287.93px;" id="elxc1zf3ija8e" class="animable"></path><path d="M174,287.93l7.26,2.36a7.63,7.63,0,1,1-14.52-4.72A7.51,7.51,0,0,1,174,280.3Z" style="fill: rgb(146, 227, 169); stroke: rgb(38, 50, 56); stroke-miterlimit: 10; stroke-width: 0.5px; transform-origin: 173.812px 287.935px;" id="eluqap1g6agyf" class="animable"></path><path d="M174,287.93V280.3a7.63,7.63,0,0,1,7.64,7.63,7.29,7.29,0,0,1-.38,2.36Z" style="fill: rgb(38, 50, 56); stroke: rgb(38, 50, 56); stroke-miterlimit: 10; stroke-width: 0.5px; transform-origin: 177.82px 285.295px;" id="elkx0kfjwwey" class="animable"></path><path d="M223,287.93l7.26,2.36a7.63,7.63,0,1,1-14.52-4.72A7.51,7.51,0,0,1,223,280.3Z" style="fill: rgb(146, 227, 169); stroke: rgb(38, 50, 56); stroke-miterlimit: 10; stroke-width: 0.5px; transform-origin: 222.813px 287.932px;" id="elg9vsnenfvio" class="animable"></path><path d="M223,287.93V280.3a7.62,7.62,0,0,1,7.63,7.63,7.28,7.28,0,0,1-.37,2.36Z" style="fill: rgb(38, 50, 56); stroke: rgb(38, 50, 56); stroke-miterlimit: 10; stroke-width: 0.5px; transform-origin: 226.815px 285.295px;" id="elw6ejvig8jy" class="animable"></path><rect x="217.82" y="357.2" width="6.68" height="2.26" style="fill: rgb(146, 227, 169); stroke: rgb(38, 50, 56); stroke-linecap: round; stroke-linejoin: round; stroke-width: 0.75px; transform-origin: 221.16px 358.33px;" id="eljnxcth6c39" class="animable"></rect><rect x="210.4" y="345.91" width="6.68" height="13.55" style="fill: rgb(38, 50, 56); stroke: rgb(38, 50, 56); stroke-linecap: round; stroke-linejoin: round; stroke-width: 0.75px; transform-origin: 213.74px 352.685px;" id="el3775on5nidm" class="animable"></rect><rect x="202.99" y="350.78" width="6.68" height="8.69" style="fill: rgb(255, 255, 255); stroke: rgb(38, 50, 56); stroke-linecap: round; stroke-linejoin: round; stroke-width: 0.75px; transform-origin: 206.33px 355.125px;" id="elqu4pncz98i" class="animable"></rect><rect x="195.57" y="344" width="6.68" height="15.46" style="fill: rgb(146, 227, 169); stroke: rgb(38, 50, 56); stroke-linecap: round; stroke-linejoin: round; stroke-width: 0.75px; transform-origin: 198.91px 351.73px;" id="el5ipkz0xw30o" class="animable"></rect><rect x="188.15" y="355.47" width="6.68" height="4" style="fill: rgb(38, 50, 56); stroke: rgb(38, 50, 56); stroke-linecap: round; stroke-linejoin: round; stroke-width: 0.75px; transform-origin: 191.49px 357.47px;" id="elxd2vjkuq7sr" class="animable"></rect><rect x="180.73" y="354.25" width="6.68" height="5.21" style="fill: rgb(255, 255, 255); stroke: rgb(38, 50, 56); stroke-linecap: round; stroke-linejoin: round; stroke-width: 0.75px; transform-origin: 184.07px 356.855px;" id="el7tq8t52pq8s" class="animable"></rect><rect x="173.31" y="349.04" width="6.68" height="10.43" style="fill: rgb(146, 227, 169); stroke: rgb(38, 50, 56); stroke-linecap: round; stroke-linejoin: round; stroke-width: 0.75px; transform-origin: 176.65px 354.255px;" id="elbbiq6x0n42q" class="animable"></rect><rect x="165.89" y="357.73" width="6.68" height="1.74" style="fill: rgb(38, 50, 56); stroke: rgb(38, 50, 56); stroke-linecap: round; stroke-linejoin: round; stroke-width: 0.75px; transform-origin: 169.23px 358.6px;" id="el0u1edvhly3fh" class="animable"></rect><rect x="158.47" y="345.91" width="6.68" height="13.55" style="fill: rgb(255, 255, 255); stroke: rgb(38, 50, 56); stroke-linecap: round; stroke-linejoin: round; stroke-width: 0.75px; transform-origin: 161.81px 352.685px;" id="eli5n1lz2ohk" class="animable"></rect><rect x="151.05" y="348.52" width="6.68" height="10.95" style="fill: rgb(146, 227, 169); stroke: rgb(38, 50, 56); stroke-linecap: round; stroke-linejoin: round; stroke-width: 0.75px; transform-origin: 154.39px 353.995px;" id="elgfuci1n6dc4" class="animable"></rect><rect x="143.64" y="358.94" width="6.68" height="0.52" style="fill: rgb(38, 50, 56); stroke: rgb(38, 50, 56); stroke-linecap: round; stroke-linejoin: round; stroke-width: 0.75px; transform-origin: 146.98px 359.2px;" id="elczh9gkymgde" class="animable"></rect><rect x="136.22" y="358.77" width="6.68" height="0.69" style="fill: rgb(255, 255, 255); stroke: rgb(38, 50, 56); stroke-linecap: round; stroke-linejoin: round; stroke-width: 0.75px; transform-origin: 139.56px 359.115px;" id="elwxavji69q4i" class="animable"></rect><rect x="128.8" y="350.78" width="6.68" height="8.69" style="fill: rgb(146, 227, 169); stroke: rgb(38, 50, 56); stroke-linecap: round; stroke-linejoin: round; stroke-width: 0.75px; transform-origin: 132.14px 355.125px;" id="el1llaj3wn2ho" class="animable"></rect><rect x="121.38" y="357.73" width="6.68" height="1.74" style="fill: rgb(38, 50, 56); stroke: rgb(38, 50, 56); stroke-linecap: round; stroke-linejoin: round; stroke-width: 0.75px; transform-origin: 124.72px 358.6px;" id="els70barvazq" class="animable"></rect><rect x="113.96" y="355.99" width="6.68" height="3.48" style="fill: rgb(255, 255, 255); stroke: rgb(38, 50, 56); stroke-linecap: round; stroke-linejoin: round; stroke-width: 0.75px; transform-origin: 117.3px 357.73px;" id="elqfe7dhxzyjg" class="animable"></rect><g id="el5tzvturfev9"><rect x="265.03" y="190.5" width="148.47" height="111.9" rx="8.55" style="opacity: 0.2; transform-origin: 339.265px 246.45px;" class="animable"></rect></g><rect x="259.88" y="184.62" width="148.47" height="111.9" rx="8.55" style="fill: rgb(255, 255, 255); stroke: rgb(38, 50, 56); stroke-linecap: round; stroke-linejoin: round; transform-origin: 334.115px 240.57px;" id="elsdk746k79jd" class="animable"></rect><rect x="391.3" y="272.17" width="7.7" height="8.54" style="fill: rgb(146, 227, 169); stroke: rgb(38, 50, 56); stroke-linecap: round; stroke-linejoin: round; stroke-width: 0.75px; transform-origin: 395.15px 276.44px;" id="elwpamhpu4qo" class="animable"></rect><rect x="382.74" y="229.47" width="7.7" height="51.23" style="fill: rgb(38, 50, 56); stroke: rgb(38, 50, 56); stroke-linecap: round; stroke-linejoin: round; stroke-width: 0.75px; transform-origin: 386.59px 255.085px;" id="elowta7krbnfq" class="animable"></rect><rect x="374.18" y="247.87" width="7.7" height="32.84" style="fill: rgb(255, 255, 255); stroke: rgb(38, 50, 56); stroke-linecap: round; stroke-linejoin: round; stroke-width: 0.75px; transform-origin: 378.03px 264.29px;" id="eljham2fi5two" class="animable"></rect><rect x="365.63" y="222.25" width="7.7" height="58.46" style="fill: rgb(146, 227, 169); stroke: rgb(38, 50, 56); stroke-linecap: round; stroke-linejoin: round; stroke-width: 0.75px; transform-origin: 369.48px 251.48px;" id="eljjieoim19z" class="animable"></rect><rect x="357.07" y="265.6" width="7.7" height="15.11" style="fill: rgb(38, 50, 56); stroke: rgb(38, 50, 56); stroke-linecap: round; stroke-linejoin: round; stroke-width: 0.75px; transform-origin: 360.92px 273.155px;" id="elxffivih1av" class="animable"></rect><rect x="348.51" y="261" width="7.7" height="19.7" style="fill: rgb(255, 255, 255); stroke: rgb(38, 50, 56); stroke-linecap: round; stroke-linejoin: round; stroke-width: 0.75px; transform-origin: 352.36px 270.85px;" id="elyn9jvjzifsr" class="animable"></rect><rect x="339.96" y="241.3" width="7.7" height="39.41" style="fill: rgb(146, 227, 169); stroke: rgb(38, 50, 56); stroke-linecap: round; stroke-linejoin: round; stroke-width: 0.75px; transform-origin: 343.81px 261.005px;" id="eldpumdcw6k46" class="animable"></rect><rect x="331.4" y="274.14" width="7.7" height="6.57" style="fill: rgb(38, 50, 56); stroke: rgb(38, 50, 56); stroke-linecap: round; stroke-linejoin: round; stroke-width: 0.75px; transform-origin: 335.25px 277.425px;" id="elvvwjmmth9t" class="animable"></rect><rect x="322.84" y="229.47" width="7.7" height="51.23" style="fill: rgb(255, 255, 255); stroke: rgb(38, 50, 56); stroke-linecap: round; stroke-linejoin: round; stroke-width: 0.75px; transform-origin: 326.69px 255.085px;" id="elng4ttaveq7" class="animable"></rect><rect x="314.29" y="239.33" width="7.7" height="41.38" style="fill: rgb(146, 227, 169); stroke: rgb(38, 50, 56); stroke-linecap: round; stroke-linejoin: round; stroke-width: 0.75px; transform-origin: 318.14px 260.02px;" id="el98hzmmsxwjo" class="animable"></rect><rect x="305.73" y="278.73" width="7.7" height="1.97" style="fill: rgb(38, 50, 56); stroke: rgb(38, 50, 56); stroke-linecap: round; stroke-linejoin: round; stroke-width: 0.75px; transform-origin: 309.58px 279.715px;" id="elnfry81e91rg" class="animable"></rect><rect x="297.17" y="278.08" width="7.7" height="2.63" style="fill: rgb(255, 255, 255); stroke: rgb(38, 50, 56); stroke-linecap: round; stroke-linejoin: round; stroke-width: 0.75px; transform-origin: 301.02px 279.395px;" id="elanhjaehkujf" class="animable"></rect><rect x="288.61" y="247.87" width="7.7" height="32.84" style="fill: rgb(146, 227, 169); stroke: rgb(38, 50, 56); stroke-linecap: round; stroke-linejoin: round; stroke-width: 0.75px; transform-origin: 292.46px 264.29px;" id="elk8iwdrwu39p" class="animable"></rect><rect x="280.06" y="274.14" width="7.7" height="6.57" style="fill: rgb(38, 50, 56); stroke: rgb(38, 50, 56); stroke-linecap: round; stroke-linejoin: round; stroke-width: 0.75px; transform-origin: 283.91px 277.425px;" id="elsdthmsc1qep" class="animable"></rect><rect x="271.5" y="267.57" width="7.7" height="13.14" style="fill: rgb(255, 255, 255); stroke: rgb(38, 50, 56); stroke-linecap: round; stroke-linejoin: round; stroke-width: 0.75px; transform-origin: 275.35px 274.14px;" id="el4sxr9kxu51u" class="animable"></rect><rect x="272.5" y="208" width="127" height="6.5" style="fill: rgb(146, 227, 169); stroke: rgb(38, 50, 56); stroke-miterlimit: 10; transform-origin: 336px 211.25px;" id="el82019medq6q" class="animable"></rect><rect x="305.96" y="208.47" width="20.6" height="5.55" style="fill: rgb(38, 50, 56); stroke: rgb(38, 50, 56); stroke-miterlimit: 10; transform-origin: 316.26px 211.245px;" id="el1ux6u7k5w8h" class="animable"></rect><rect x="327.39" y="208.47" width="38.69" height="5.55" style="fill: rgb(255, 255, 255); stroke: rgb(38, 50, 56); stroke-miterlimit: 10; transform-origin: 346.735px 211.245px;" id="el5sfcoosrp76" class="animable"></rect><g id="el550mugeah5a"><rect x="277.16" y="69.61" width="120.14" height="90.55" rx="8.55" style="opacity: 0.2; transform-origin: 337.23px 114.885px;" class="animable"></rect></g><rect x="272.74" y="63.73" width="120.14" height="90.55" rx="8.55" style="fill: rgb(255, 255, 255); stroke: rgb(38, 50, 56); stroke-linecap: round; stroke-linejoin: round; transform-origin: 332.81px 109.005px;" id="elmtch4f3tfnr" class="animable"></rect><line x1="278.32" y1="145.8" x2="391.12" y2="145.8" style="fill: none; stroke: rgb(38, 50, 56); stroke-miterlimit: 10; stroke-width: 0.5px; transform-origin: 334.72px 145.8px;" id="elnfrmdt8jnb" class="animable"></line><line x1="278.32" y1="145.8" x2="278.32" y2="147.47" style="fill: none; stroke: rgb(38, 50, 56); stroke-miterlimit: 10; stroke-width: 0.5px; transform-origin: 278.32px 146.635px;" id="ela3s9t33pl6b" class="animable"></line><line x1="285.84" y1="145.8" x2="285.84" y2="147.47" style="fill: none; stroke: rgb(38, 50, 56); stroke-miterlimit: 10; stroke-width: 0.5px; transform-origin: 285.84px 146.635px;" id="el8mfej725922" class="animable"></line><line x1="293.36" y1="145.8" x2="293.36" y2="147.47" style="fill: none; stroke: rgb(38, 50, 56); stroke-miterlimit: 10; stroke-width: 0.5px; transform-origin: 293.36px 146.635px;" id="el7wr0votut67" class="animable"></line><line x1="300.88" y1="145.8" x2="300.88" y2="147.47" style="fill: none; stroke: rgb(38, 50, 56); stroke-miterlimit: 10; stroke-width: 0.5px; transform-origin: 300.88px 146.635px;" id="el6yzk481b7wn" class="animable"></line><line x1="308.4" y1="145.8" x2="308.4" y2="147.47" style="fill: none; stroke: rgb(38, 50, 56); stroke-miterlimit: 10; stroke-width: 0.5px; transform-origin: 308.4px 146.635px;" id="eljcwoe16p6lq" class="animable"></line><line x1="315.92" y1="145.8" x2="315.92" y2="147.47" style="fill: none; stroke: rgb(38, 50, 56); stroke-miterlimit: 10; stroke-width: 0.5px; transform-origin: 315.92px 146.635px;" id="el7c5btlfpokw" class="animable"></line><line x1="323.44" y1="145.8" x2="323.44" y2="147.47" style="fill: none; stroke: rgb(38, 50, 56); stroke-miterlimit: 10; stroke-width: 0.5px; transform-origin: 323.44px 146.635px;" id="el4g78p3mh9xs" class="animable"></line><line x1="330.96" y1="145.8" x2="330.96" y2="147.47" style="fill: none; stroke: rgb(38, 50, 56); stroke-miterlimit: 10; stroke-width: 0.5px; transform-origin: 330.96px 146.635px;" id="elerzyw1tusw9" class="animable"></line><line x1="338.48" y1="145.8" x2="338.48" y2="147.47" style="fill: none; stroke: rgb(38, 50, 56); stroke-miterlimit: 10; stroke-width: 0.5px; transform-origin: 338.48px 146.635px;" id="elfi69pv75dis" class="animable"></line><line x1="346" y1="145.8" x2="346" y2="147.47" style="fill: none; stroke: rgb(38, 50, 56); stroke-miterlimit: 10; stroke-width: 0.5px; transform-origin: 346px 146.635px;" id="elvpnmddizy3" class="animable"></line><line x1="353.52" y1="145.8" x2="353.52" y2="147.47" style="fill: none; stroke: rgb(38, 50, 56); stroke-miterlimit: 10; stroke-width: 0.5px; transform-origin: 353.52px 146.635px;" id="elgcfnj18yyr" class="animable"></line><line x1="361.04" y1="145.8" x2="361.04" y2="147.47" style="fill: none; stroke: rgb(38, 50, 56); stroke-miterlimit: 10; stroke-width: 0.5px; transform-origin: 361.04px 146.635px;" id="ellfpwnl8tnw" class="animable"></line><line x1="368.56" y1="145.8" x2="368.56" y2="147.47" style="fill: none; stroke: rgb(38, 50, 56); stroke-miterlimit: 10; stroke-width: 0.5px; transform-origin: 368.56px 146.635px;" id="ell781pyrf0tp" class="animable"></line><line x1="376.08" y1="145.8" x2="376.08" y2="147.47" style="fill: none; stroke: rgb(38, 50, 56); stroke-miterlimit: 10; stroke-width: 0.5px; transform-origin: 376.08px 146.635px;" id="elq51k3ceatx" class="animable"></line><line x1="383.6" y1="145.8" x2="383.6" y2="147.47" style="fill: none; stroke: rgb(38, 50, 56); stroke-miterlimit: 10; stroke-width: 0.5px; transform-origin: 383.6px 146.635px;" id="el4l82bovqxqo" class="animable"></line><line x1="391.12" y1="145.8" x2="391.12" y2="147.47" style="fill: none; stroke: rgb(38, 50, 56); stroke-miterlimit: 10; stroke-width: 0.5px; transform-origin: 391.12px 146.635px;" id="elqesk88dnrf" class="animable"></line><path d="M282.08,144.44H387.36V129.89l-7.45-14.4a1.19,1.19,0,0,1-.1-.32l-6.62-42.71a.8.8,0,0,0-1.6,0l-6.74,52.14a1,1,0,0,1-.35.64l-6.49,5a.76.76,0,0,1-1.16-.33l-6.54-13.49a.75.75,0,0,0-1.31-.17L342.24,125l-7.52,9.7L327.2,125l-6.63-8.55a.76.76,0,0,0-1.36.3l-7,21.83-7.52-38.91-7.52,42.79-7.52-5.82-6-16.9c-.34-1-1.56-.68-1.56.36Z" style="fill: rgb(146, 227, 169); transform-origin: 334.72px 108.05px;" id="elzrjobluz83r" class="animable"></path><path d="M387.36,144.47H282.08V132l7.44-12.38a.73.73,0,0,0,.1-.28l6.62-36.73a.82.82,0,0,1,1.61,0l6.73,44.84a.86.86,0,0,0,.36.55l6.49,4.32a.81.81,0,0,0,1.16-.28l6.53-11.6a.81.81,0,0,1,1.31-.14l6.77,7.5,7.52,8.34,7.52-8.34,6.62-7.35a.82.82,0,0,1,1.37.26l7,18.77h7.52l7.52,3.34,7.52-5,6-14.53a.81.81,0,0,1,1.57.31Z" style="fill: rgb(38, 50, 56); transform-origin: 334.72px 113.208px;" id="ely4kfz4hse8" class="animable"></path><line x1="339.09" y1="75.8" x2="362.39" y2="75.8" style="fill: none; stroke: rgb(38, 50, 56); stroke-linecap: round; stroke-linejoin: round; transform-origin: 350.74px 75.8px;" id="elur2zmebm5o" class="animable"></line><line x1="339.09" y1="81.26" x2="362.39" y2="81.26" style="fill: none; stroke: rgb(38, 50, 56); stroke-linecap: round; stroke-linejoin: round; transform-origin: 350.74px 81.26px;" id="elnb91v9hg3v" class="animable"></line><line x1="339.09" y1="86.71" x2="362.39" y2="86.71" style="fill: none; stroke: rgb(38, 50, 56); stroke-linecap: round; stroke-linejoin: round; transform-origin: 350.74px 86.71px;" id="elmccaayvoj5o" class="animable"></line><line x1="339.09" y1="92.17" x2="362.39" y2="92.17" style="fill: none; stroke: rgb(38, 50, 56); stroke-linecap: round; stroke-linejoin: round; transform-origin: 350.74px 92.17px;" id="el3fmfxj4c5j8" class="animable"></line><line x1="339.09" y1="97.62" x2="362.39" y2="97.62" style="fill: none; stroke: rgb(38, 50, 56); stroke-linecap: round; stroke-linejoin: round; transform-origin: 350.74px 97.62px;" id="elv6bezsc2wsr" class="animable"></line><line x1="339.09" y1="103.08" x2="362.39" y2="103.08" style="fill: none; stroke: rgb(38, 50, 56); stroke-linecap: round; stroke-linejoin: round; transform-origin: 350.74px 103.08px;" id="eln9a65l5j7bm" class="animable"></line><line x1="333.79" y1="75.8" x2="336.71" y2="75.8" style="fill: none; stroke: rgb(38, 50, 56); stroke-linecap: round; stroke-linejoin: round; transform-origin: 335.25px 75.8px;" id="el4m5bxk2dew" class="animable"></line><line x1="333.79" y1="81.26" x2="336.71" y2="81.26" style="fill: none; stroke: rgb(38, 50, 56); stroke-linecap: round; stroke-linejoin: round; transform-origin: 335.25px 81.26px;" id="elr62cbheru9g" class="animable"></line><line x1="333.79" y1="86.71" x2="336.71" y2="86.71" style="fill: none; stroke: rgb(38, 50, 56); stroke-linecap: round; stroke-linejoin: round; transform-origin: 335.25px 86.71px;" id="elzcje4kcmh1r" class="animable"></line><line x1="333.79" y1="92.17" x2="336.71" y2="92.17" style="fill: none; stroke: rgb(38, 50, 56); stroke-linecap: round; stroke-linejoin: round; transform-origin: 335.25px 92.17px;" id="elyt3rgjaj15" class="animable"></line><line x1="333.79" y1="97.62" x2="336.71" y2="97.62" style="fill: none; stroke: rgb(38, 50, 56); stroke-linecap: round; stroke-linejoin: round; transform-origin: 335.25px 97.62px;" id="elivaan1o53y" class="animable"></line><line x1="333.79" y1="103.08" x2="336.71" y2="103.08" style="fill: none; stroke: rgb(38, 50, 56); stroke-linecap: round; stroke-linejoin: round; transform-origin: 335.25px 103.08px;" id="el9zagff1hl3" class="animable"></line></g><g id="freepik--Shadow--inject-14" class="animable" style="transform-origin: 247.5px 418.5px;"><ellipse cx="247.5" cy="418.5" rx="59.44" ry="29.5" style="fill: rgb(146, 227, 169); transform-origin: 247.5px 418.5px;" id="el1b69wvve7oh" class="animable"></ellipse><g id="elfbnee1k43ue"><ellipse cx="247.5" cy="418.5" rx="59.44" ry="29.5" style="fill: rgb(255, 255, 255); opacity: 0.5; transform-origin: 247.5px 418.5px;" class="animable"></ellipse></g></g><g id="freepik--Character--inject-14" class="animable" style="transform-origin: 254.651px 291.484px;"><path d="M227.53,196.12s-15.26,54.43-15.26,58.62c0,3.57,5,10.7,10.52,7.84s6.77-11.76,6.77-11.76Z" style="fill: rgb(255, 255, 255); stroke: rgb(38, 50, 56); stroke-linecap: round; stroke-linejoin: round; transform-origin: 220.915px 229.681px;" id="elngmtdlpsaqf" class="animable"></path><path d="M268.35,419.08s-7.81,10.55-8.4,15,5.45,4.8,8.11,2.73,8.2-15.57,8.2-15.57Z" style="fill: rgb(255, 255, 255); stroke: rgb(38, 50, 56); stroke-linecap: round; stroke-linejoin: round; transform-origin: 268.085px 428.555px;" id="ela3wznod4xf" class="animable"></path><path d="M225.73,393.68s-13.37,5.62-13.37,8.83,6.95,2.4,12,.53,13.1-5.08,13.1-5.08S229.74,392.88,225.73,393.68Z" style="fill: rgb(255, 255, 255); stroke: rgb(38, 50, 56); stroke-linecap: round; stroke-linejoin: round; transform-origin: 224.91px 399.138px;" id="el98hx5afmsk" class="animable"></path><path d="M229.92,266.68l-.45,17.38S226,315.88,224.39,333s3.48,56.42,3.48,56.42l-2.41,2.4v2.41l12,3.74a52.93,52.93,0,0,0,1.07-7.49v-4l12.57-75.13s9.89,75.94,11.5,84.76,4,18.18,4,18.18l-.8,2.67,1.06,4.82,8.29,2.14a15.24,15.24,0,0,0,2.41-7.22c.53-4.82.8-16.05.8-16.05s-.53-39,1.34-65.5a309.07,309.07,0,0,0-.54-48.93l-1.33-17.64A65.7,65.7,0,0,1,229.92,266.68Z" style="fill: rgb(38, 50, 56); stroke: rgb(38, 50, 56); stroke-linecap: round; stroke-linejoin: round; transform-origin: 252.247px 345.3px;" id="el81crlv7w1i7" class="animable"></path><polyline points="251.13 311.33 249.79 301.44 244.45 295.83" style="fill: none; stroke: rgb(255, 255, 255); stroke-linecap: round; stroke-linejoin: round; transform-origin: 247.79px 303.58px;" id="eleyx96aq4h3r" class="animable"></polyline><path d="M269.85,276.31s-3.75,6.95,6.41,10.16" style="fill: none; stroke: rgb(255, 255, 255); stroke-linecap: round; stroke-linejoin: round; transform-origin: 272.717px 281.39px;" id="elks81ulunxfi" class="animable"></path><line x1="276.26" y1="289.68" x2="276.26" y2="413.2" style="fill: none; stroke: rgb(255, 255, 255); stroke-linecap: round; stroke-linejoin: round; transform-origin: 276.26px 351.44px;" id="elt9jd7vpbtmk" class="animable"></line><path d="M242.57,277.91l1.07,6.42s-2.67,4.81-1.6,6.95" style="fill: none; stroke: rgb(255, 255, 255); stroke-linecap: round; stroke-linejoin: round; transform-origin: 242.714px 284.595px;" id="el1pqfp8tug2z" class="animable"></path><path d="M247.93,189.18s-20.05,5.87-20.4,6.94,2.39,70.56,2.39,70.56,5.35,8.2,20,9.45,28.52-6.42,28.52-6.42L288,206.44s-23-15.69-24.6-16.05S252.39,187.93,247.93,189.18Z" style="fill: rgb(255, 255, 255); stroke: rgb(38, 50, 56); stroke-linecap: round; stroke-linejoin: round; transform-origin: 257.75px 232.527px;" id="elb4kv1x477n9" class="animable"></path><path d="M246.55,202.54l4.76,11.68,8.14-9.22s-.61-5.84-6-6.45A6.3,6.3,0,0,0,246.55,202.54Z" style="fill: rgb(38, 50, 56); stroke: rgb(38, 50, 56); stroke-linecap: round; stroke-linejoin: round; transform-origin: 253px 206.344px;" id="elsqxtig5v6oa" class="animable"></path><path d="M247.93,189.18l-8.45,13.36s4.92-1.23,7.22.77,4.92,4.15,4.92,4.15,4-3.23,7.22-2.15a23.36,23.36,0,0,1,6.14,3.38s2-13.21-.61-19.2S253.46,181.34,247.93,189.18Z" style="fill: rgb(255, 255, 255); stroke: rgb(38, 50, 56); stroke-linecap: round; stroke-linejoin: round; transform-origin: 252.596px 196.399px;" id="eltm4ugoa23v" class="animable"></path><path d="M250.08,190.71a109.83,109.83,0,0,0-.15,11.68c.3,4.92,1.84,6,3.68,2.77s6-13.06,6-15.83a48.6,48.6,0,0,1,.3-5.22S253.46,191,250.08,190.71Z" style="fill: rgb(255, 255, 255); stroke: rgb(38, 50, 56); stroke-linecap: round; stroke-linejoin: round; transform-origin: 254.875px 195.556px;" id="el4sst18nje4" class="animable"></path><polygon points="251.31 214.22 243.32 254.93 248.7 268.45 255.31 257.39 251.31 214.22" style="fill: rgb(38, 50, 56); stroke: rgb(38, 50, 56); stroke-linecap: round; stroke-linejoin: round; transform-origin: 249.315px 241.335px;" id="elrsigpwm0rgm" class="animable"></polygon><path d="M267,251.35s-18-10.87-19.6-12.29-1.61-.36-2.86.35-5.88,6.24-6.77,8-2.32,4.28-.53,4.64,3.21-3,3.21-3.57,2.67-3.56,2.67-3.56-2.67,6.41-1.78,6.95,6.95,3,8.2,3,2.13-2.32,2.13-2.32,1.79,2.32,3.57,2.14a6.91,6.91,0,0,0,3-1.07l6.06,4.81Z" style="fill: rgb(255, 255, 255); stroke: rgb(38, 50, 56); stroke-linecap: round; stroke-linejoin: round; transform-origin: 251.691px 248.394px;" id="el4ns47eb3j1a" class="animable"></path><path d="M267,251.35s-2.24-1.35-5.2-3.16l-2.64,6.19,5.17,4.1Z" style="fill: rgb(255, 255, 255); stroke: rgb(38, 50, 56); stroke-linecap: round; stroke-linejoin: round; transform-origin: 263.08px 253.335px;" id="ell5ik7vi59h" class="animable"></path><path d="M243.64,253.14s.54-5.71,2.86-8.92" style="fill: none; stroke: rgb(38, 50, 56); stroke-linecap: round; stroke-linejoin: round; transform-origin: 245.07px 248.68px;" id="elm44tyqggwn" class="animable"></path><path d="M246.67,253.85s1.25-5,3.75-7.84" style="fill: none; stroke: rgb(38, 50, 56); stroke-linecap: round; stroke-linejoin: round; transform-origin: 248.545px 249.93px;" id="el5n1hf2j7aid" class="animable"></path><path d="M280.54,209.65a26.47,26.47,0,0,0-8.38,14.43L283.39,256s-13.37-5.53-15-5.7-7.31,7.66-5.7,9.44,33,19.43,34.93,17.11-8-65.41-9.09-67.73-.35-3.56-4.1-4.1" style="fill: rgb(255, 255, 255); stroke: rgb(38, 50, 56); stroke-linecap: round; stroke-linejoin: round; transform-origin: 280.137px 241.04px;" id="ele2n2c1mnc5e" class="animable"></path><path d="M283.39,256s6.42,1.43,8.2,4.81" style="fill: rgb(255, 255, 255); stroke: rgb(38, 50, 56); stroke-linecap: round; stroke-linejoin: round; transform-origin: 287.49px 258.405px;" id="elqpjkexse4j" class="animable"></path><path d="M211.63,229.71l14.32,32a1.44,1.44,0,0,0,.73.71l20.49,8.4A1.37,1.37,0,0,0,249,269.1l-11.47-31a4,4,0,0,0-2.38-2.37l-21.78-7.89A1.37,1.37,0,0,0,211.63,229.71Z" style="fill: rgb(146, 227, 169); stroke: rgb(38, 50, 56); stroke-linecap: round; stroke-linejoin: round; transform-origin: 230.286px 249.337px;" id="elmmupem667i" class="animable"></path><path d="M217,246.77a1.31,1.31,0,0,0-1.57,1.4,1.77,1.77,0,0,0,.49,1.24c.79.56,6.72,1,6.49-.12C222.26,248.42,219.2,247.2,217,246.77Z" style="fill: rgb(255, 255, 255); stroke: rgb(38, 50, 56); stroke-linecap: round; stroke-linejoin: round; transform-origin: 218.921px 248.364px;" id="elp2d2qvu4ndi" class="animable"></path><path d="M215.15,244.61a1.56,1.56,0,0,0-1.87,1.66,2.08,2.08,0,0,0,.59,1.47c.93.66,8,1.19,7.7-.14C221.36,246.57,217.73,245.12,215.15,244.61Z" style="fill: rgb(255, 255, 255); stroke: rgb(38, 50, 56); stroke-linecap: round; stroke-linejoin: round; transform-origin: 217.427px 246.5px;" id="elwy2z4hswa8b" class="animable"></path><path d="M214.59,241.43a1.7,1.7,0,0,0-2,1.81,2.28,2.28,0,0,0,.64,1.6c1,.72,8.66,1.3,8.37-.14C221.35,243.57,217.4,242,214.59,241.43Z" style="fill: rgb(255, 255, 255); stroke: rgb(38, 50, 56); stroke-linecap: round; stroke-linejoin: round; transform-origin: 217.096px 243.495px;" id="elwwu7up9nd4l" class="animable"></path><path d="M213.44,238.4a1.7,1.7,0,0,0-2,1.81,2.19,2.19,0,0,0,.64,1.6c1,.72,8.66,1.3,8.37-.14C220.19,240.54,216.25,239,213.44,238.4Z" style="fill: rgb(255, 255, 255); stroke: rgb(38, 50, 56); stroke-linecap: round; stroke-linejoin: round; transform-origin: 215.946px 240.465px;" id="elfyh57suc97o" class="animable"></path><path d="M240.33,167.6s1.2,12.24,3.88,17.91,3.58,8.35,6.27,8.35,7.76-3.88,10.14-7.46a58.2,58.2,0,0,0,3.29-5.37l.59-1.49s4.18-3,5.08-5.07-.9-3.58-4.18-1.79c0,0,1.19-9.25-1.2-14.92S243.62,157.46,240.33,167.6Z" style="fill: rgb(255, 255, 255); stroke: rgb(38, 50, 56); stroke-miterlimit: 10; transform-origin: 255.071px 174.658px;" id="elw5l1z2zu81" class="animable"></path><path d="M237.08,172.25l20.16,4.11s.14,3.13-2,4.12a6.09,6.09,0,0,1-6.39-1c-1.56-1.42-1.56-4.12-1.56-4.12s-1.28-1-1.42,0a3.85,3.85,0,0,1-3.94,3.26,4.74,4.74,0,0,1-4.24-3.16A12.08,12.08,0,0,1,237.08,172.25Z" style="fill: rgb(255, 255, 255); stroke: rgb(38, 50, 56); stroke-linecap: round; stroke-linejoin: round; transform-origin: 247.161px 176.611px;" id="el7s2k44s2w0p" class="animable"></path><line x1="257.24" y1="176.36" x2="265.62" y2="171.96" style="fill: none; stroke: rgb(38, 50, 56); stroke-linecap: round; stroke-linejoin: round; transform-origin: 261.43px 174.16px;" id="elmrabgozr237" class="animable"></line><line x1="237.08" y1="172.25" x2="240.34" y2="170.97" style="fill: none; stroke: rgb(38, 50, 56); stroke-linecap: round; stroke-linejoin: round; transform-origin: 238.71px 171.61px;" id="elmdtrwomoa6o" class="animable"></line><polyline points="246.02 176.22 244.6 181.48 246.31 181.9 246.73 186.02 249.43 185.31" style="fill: rgb(255, 255, 255); stroke: rgb(38, 50, 56); stroke-linecap: round; stroke-linejoin: round; transform-origin: 247.015px 181.12px;" id="elm7n9sk45fsm" class="animable"></polyline><path d="M249,147.91s-11.94,9.25-13.13,14.92,6.56,8.06,11.64,7.16S260,164.32,260,164.32s-4.18,6.57-.9,6.86a15.68,15.68,0,0,0,4.48,0s-1.79,3.59-.3,3.59,2.09-2.09,2.09-2.09,4.18-9.85,3-18.8S256.15,142.24,249,147.91Z" style="fill: rgb(38, 50, 56); stroke: rgb(38, 50, 56); stroke-miterlimit: 10; transform-origin: 252.164px 159.854px;" id="elt1r2kc6wlpr" class="animable"></path></g><defs>     <filter id="active" height="200%">         <feMorphology in="SourceAlpha" result="DILATED" operator="dilate" radius="2"></feMorphology>                <feFlood flood-color="#32DFEC" flood-opacity="1" result="PINK"></feFlood>        <feComposite in="PINK" in2="DILATED" operator="in" result="OUTLINE"></feComposite>        <feMerge>            <feMergeNode in="OUTLINE"></feMergeNode>            <feMergeNode in="SourceGraphic"></feMergeNode>        </feMerge>    </filter>    <filter id="hover" height="200%">        <feMorphology in="SourceAlpha" result="DILATED" operator="dilate" radius="2"></feMorphology>                <feFlood flood-color="#ff0000" flood-opacity="0.5" result="PINK"></feFlood>        <feComposite in="PINK" in2="DILATED" operator="in" result="OUTLINE"></feComposite>        <feMerge>            <feMergeNode in="OUTLINE"></feMergeNode>            <feMergeNode in="SourceGraphic"></feMergeNode>        </feMerge>            <feColorMatrix type="matrix" values="0   0   0   0   0                0   1   0   0   0                0   0   0   0   0                0   0   0   1   0 "></feColorMatrix>    </filter></defs></svg>