<?xml version="1.0" encoding="utf-8"?>
<svg viewBox="0 0 720 720" xmlns="http://www.w3.org/2000/svg">
  <path fill="#689966" opacity="1.000000" stroke="none" d=" M357.913544,56.111526 C389.355621,79.009293 410.351532,108.642242 419.191559,146.368637 C424.846436,170.501831 423.908783,194.727341 417.582825,218.553360 C415.189270,227.568390 410.878662,236.120300 406.956879,244.660583 C405.442444,247.958435 402.565979,250.866409 398.201965,249.921692 C394.051483,249.023224 391.514313,246.057709 390.911682,241.973618 C389.241821,230.656097 387.516968,219.330093 386.418518,207.949097 C385.092163,194.206543 384.377045,180.404694 383.435486,166.625931 C383.371094,165.683502 383.624725,164.719360 383.807343,163.071396 C391.864624,165.380753 399.582764,167.592896 407.300934,169.805038 C407.659882,169.077072 408.018829,168.349091 408.377808,167.621124 C405.527283,165.393143 402.867340,162.844833 399.782928,161.010117 C394.795441,158.043350 389.648224,155.272324 384.334839,152.953995 C381.220062,151.594940 379.749878,149.641251 378.850433,146.518524 C375.815216,135.980835 372.828949,125.409935 369.168732,115.083992 C368.177673,112.288002 364.871826,110.312515 362.628448,107.960419 C362.565826,110.901207 362.037689,113.922615 362.530243,116.767265 C363.863403,124.466316 365.682739,132.079926 367.193909,139.750137 C367.662964,142.130814 367.762695,144.584244 368.123749,147.834946 C360.943604,146.006256 354.565125,144.357086 348.171417,142.769363 C346.402802,142.330185 344.523773,141.617767 342.813995,141.861786 C341.105103,142.105652 339.544708,143.390289 337.919250,144.218719 C338.855804,145.962555 339.383270,148.694611 340.799072,149.280701 C347.241028,151.947311 353.906860,154.089264 360.541199,156.270844 C369.894379,159.346451 370.038025,159.281403 370.719818,168.974792 C372.219818,190.300949 372.630676,211.591721 366.678040,232.432846 C364.038147,241.675537 359.944397,250.245193 352.489868,256.628723 C342.224518,265.419220 327.292084,266.000519 315.884888,257.917328 C302.939606,248.744232 295.447815,235.912888 292.154083,220.532913 C286.958893,196.274063 293.917328,174.211502 303.917755,152.472687 C315.701965,126.856377 325.581024,100.551666 328.617279,72.204002 C329.815857,61.013607 329.395020,49.935837 325.865967,39.121212 C325.635193,38.414009 325.746735,37.595108 325.637360,35.835796 C337.590637,41.481197 347.603882,48.713356 357.913544,56.111526 z"/>
  <path fill="#692A4B" opacity="1.000000" stroke="none" d=" M227.957077,386.901428 C212.510666,392.383789 197.397385,386.945587 190.835220,373.818604 C184.077744,360.300873 188.091507,344.496887 200.376663,336.249512 C213.496994,327.441528 230.940079,330.733795 240.201721,343.766266 C249.156647,356.367157 246.339783,374.117004 233.845551,383.413849 C232.124161,384.694672 230.158813,385.647614 227.957077,386.901428 M228.931702,381.427551 C229.156281,380.818146 229.221207,380.059021 229.630386,379.622803 C233.301514,375.708984 238.647461,372.436798 240.318924,367.823151 C242.205185,362.616608 240.831100,356.218170 240.769089,350.339233 C240.764694,349.924286 239.906815,349.493927 239.413651,349.112335 C234.550308,345.349121 229.489792,341.812286 224.870285,337.771057 C220.950043,334.341553 209.580872,333.689240 205.954605,337.282288 C204.877640,338.349396 204.291718,339.948364 203.147614,340.905273 C197.478470,345.646729 191.322922,349.938599 192.905777,358.914948 C193.417557,361.817200 192.802597,364.901611 193.063477,367.871002 C193.216385,369.611481 193.604614,371.744293 194.716736,372.907013 C197.605026,375.926666 200.643295,379.017273 204.179169,381.159363 C212.010239,385.903534 220.293640,387.085052 228.931702,381.427551 z"/>
  <path fill="#96597C" opacity="1.000000" stroke="none" d=" M199.925842,271.070251 C197.885330,266.649841 194.945450,262.420563 193.958496,257.776245 C189.453491,236.576889 201.571060,217.069778 222.037247,211.707077 C242.272202,206.404968 262.659027,217.352783 269.474884,237.181290 C274.672699,252.302612 269.545624,269.888641 257.160278,279.420654 C242.875992,290.414154 224.737183,291.268829 210.484177,281.324524 C214.829819,281.678162 218.909882,282.339691 222.995026,283.001099 C223.000107,283.000946 222.999466,283.009857 223.089279,283.403625 C227.456436,284.194031 231.733765,284.590637 236.420837,284.988586 C238.226151,284.652466 239.805801,284.624939 240.985779,283.924347 C246.415665,280.700409 251.740356,277.298737 257.087860,273.937103 C258.396576,273.114441 260.588745,272.355072 260.759521,271.304138 C261.388916,267.431152 264.242767,264.628693 265.336212,261.376953 C267.274780,255.612137 268.895630,248.774902 267.564789,243.111237 C265.744080,235.362900 262.453613,227.414078 254.838120,222.683655 C252.102478,220.984390 249.608017,218.896835 246.924408,216.613159 C240.708344,212.620789 233.915848,212.425659 227.205887,213.200012 C224.362473,213.528168 221.728470,215.670975 218.999390,216.994247 C218.999481,216.999466 218.989075,216.998169 218.614258,216.998413 C217.159653,217.663620 216.079880,218.328583 215.000061,218.996765 C215.000000,219.000000 214.993393,218.999390 214.594757,218.998474 C211.163071,218.829300 208.532516,219.286011 207.776657,223.102631 C207.286514,223.414215 207.098267,223.675415 206.669739,224.139038 C201.921509,225.509109 201.197525,229.426102 199.999847,233.252899 C199.992996,233.501953 199.980988,234.000107 199.696747,234.219971 C195.494202,241.015244 195.331970,248.279236 196.234528,255.479111 C196.646103,258.762451 198.676651,261.842834 199.981262,265.345795 C199.998764,266.117035 200.007904,266.557770 200.009552,267.389587 C200.038773,268.820251 200.075500,269.859802 200.065521,270.941956 C200.018799,270.984528 199.925842,271.070251 199.925842,271.070251 z"/>
  <path fill="#7F98B9" opacity="1.000000" stroke="none" d=" M365.957642,499.127991 C353.199219,492.582092 347.420685,480.270294 350.414032,466.555328 C352.807709,455.587860 364.678741,445.724274 376.614136,445.588318 C388.332367,445.454803 398.379547,449.708984 403.752869,460.667175 C408.947662,471.261414 408.514679,482.014679 400.592529,491.468994 C392.799713,500.768921 382.735596,503.598480 371.025848,500.804871 C369.421509,500.422119 367.871674,499.810974 365.957642,499.127991 M368.895782,450.979370 C368.822235,451.128784 368.788422,451.355072 368.669464,451.416595 C362.336121,454.690674 360.099426,462.305817 353.722900,465.549957 C353.380096,465.724365 353.081665,466.414276 353.115509,466.835876 C353.554840,472.304901 350.575714,478.922058 356.131134,482.743225 C359.257233,484.893463 358.813019,488.315948 361.148346,490.356140 C362.854034,491.846313 364.272003,493.856750 366.219116,494.847046 C375.449249,499.541260 385.854431,497.466736 393.492004,489.794952 C393.997162,489.287506 394.976105,489.207733 395.757263,489.026093 C400.625916,487.893982 402.627258,484.871155 401.864166,480.035126 C401.453583,477.433411 400.510071,474.554321 401.210236,472.221497 C402.327637,468.498566 402.467102,466.728210 399.249237,463.157257 C395.253265,458.722748 392.143127,453.966125 386.500275,451.049774 C380.601288,448.001038 375.028809,448.468964 368.895782,450.979370 z"/>
  <path fill="#96597C" opacity="1.000000" stroke="none" d=" M351.527618,612.527771 C368.643616,595.220764 394.243225,603.403748 400.905060,621.332947 C406.030609,635.127563 400.852203,649.483521 388.055511,657.067627 C376.751801,663.766907 359.970001,661.105896 351.474121,651.267151 C341.883698,640.160889 341.808899,624.527527 351.527618,612.527771 M387.050507,611.355408 C383.220093,609.905212 379.490173,608.034607 375.538879,607.090149 C366.579132,604.948608 360.152466,610.348267 353.898407,615.425964 C352.183899,616.817993 351.374603,619.414429 350.373199,621.562256 C349.756042,622.885864 349.839966,624.566223 349.126892,625.809875 C346.632935,630.159790 346.803009,639.671936 349.778351,643.398987 C351.108185,645.064880 352.736450,646.492493 355.044312,648.866699 C357.834015,648.668152 361.703674,649.044800 361.365143,654.134277 C365.269348,655.173889 368.675812,656.754395 372.119354,656.839844 C377.267365,656.967590 382.547119,658.457397 387.174164,653.262512 C390.410492,649.628906 395.458038,647.708069 394.444275,642.220886 C395.924744,641.783936 397.561188,641.807739 398.213287,641.018372 C400.686096,638.025024 400.148743,628.253784 397.819672,624.713135 C395.915070,621.817932 394.538330,618.561646 392.515717,615.763062 C391.332214,614.125488 389.341431,613.071411 387.050507,611.355408 z"/>
  <path fill="#985778" opacity="1.000000" stroke="none" d=" M321.964600,481.970642 C311.712616,486.541656 302.180481,485.996002 293.551514,479.205811 C285.099091,472.554474 282.660492,463.592682 285.047058,453.304626 C287.443634,442.973267 296.976013,435.526917 307.937042,435.150330 C321.046265,434.699982 330.959045,441.171722 334.522644,452.507385 C337.778473,462.863983 333.605835,474.371033 324.390472,480.441620 C323.696045,480.899078 322.989624,481.338318 321.964600,481.970642 M289.000061,456.612000 C288.998352,456.778473 289.004364,456.945435 288.993927,457.111359 C288.572906,463.798981 286.558258,471.129852 295.939850,473.796661 C296.449310,473.941467 296.469513,475.384094 297.024292,475.877899 C298.319214,477.030457 299.742920,478.748352 301.217957,478.859161 C306.184082,479.232117 311.259064,479.483032 316.166748,478.832611 C319.351349,478.410553 323.132843,477.080414 325.186432,474.826477 C328.138275,471.586548 330.254364,467.307739 331.717194,463.119629 C332.337982,461.342407 330.294159,458.697815 329.694763,456.386902 C329.542877,455.801300 330.531555,454.994080 330.561829,454.270477 C330.614227,453.018341 330.728577,451.485779 330.103851,450.543762 C328.506897,448.135803 326.772858,445.702911 324.637360,443.789276 C317.847046,437.704468 309.727417,438.036713 301.564514,439.831085 C298.675385,440.466156 295.861298,441.788422 295.811523,445.680023 C295.801056,446.498169 294.889282,447.930328 294.251312,448.015167 C289.473480,448.650421 289.923126,452.620422 289.000061,456.612000 z"/>
  <path fill="#965979" opacity="1.000000" stroke="none" d=" M289.510223,584.734619 C268.987000,580.572571 264.396149,559.795166 272.917755,547.314270 C279.871643,537.129456 292.028107,533.878906 304.337677,538.990356 C314.359222,543.151733 319.906616,554.675842 317.516479,566.367920 C315.296875,577.225830 305.385925,584.832214 293.437836,584.840332 C292.272888,584.841125 291.107910,584.801453 289.510223,584.734619 M303.498779,541.433228 C301.540924,540.765808 299.562317,540.153076 297.629364,539.420044 C293.083801,537.696289 289.511871,539.141113 288.323822,542.978882 C287.890656,542.980225 287.457458,542.981567 286.899078,542.300964 C284.271729,540.002808 284.065704,541.877686 283.244385,544.005005 C273.304382,548.262024 269.076935,559.338257 274.120697,568.546387 C275.742554,571.507446 277.566315,574.965149 280.264648,576.581116 C283.944580,578.784912 288.502441,579.630554 292.770569,580.718445 C298.797760,582.254761 306.068329,579.285645 308.734436,574.556152 C311.785980,569.142761 313.919525,563.639954 313.148682,557.122681 C312.761871,553.851990 312.168518,551.350647 309.004486,549.221680 C308.003998,547.484375 307.003540,545.747070 305.764069,543.474854 C305.178406,542.980469 304.592773,542.486084 303.498779,541.433228 z"/>
  <path fill="#692A4B" opacity="1.000000" stroke="none" d=" M330.832367,297.049011 C337.922272,307.529358 336.708710,321.769287 327.953186,330.833740 C318.185242,340.946228 302.662933,342.896515 290.968018,335.480652 C276.433929,326.264465 273.082336,305.423981 284.628418,294.336609 C284.960632,296.372406 284.978271,298.175995 284.848572,300.327393 C282.222137,305.504425 281.882080,310.354950 282.792877,315.843750 C284.099792,323.719940 291.655518,333.247894 299.580841,334.903229 C302.618286,335.537628 306.033508,336.759796 308.761047,335.958740 C313.712433,334.504639 318.458282,332.041992 322.936157,329.400574 C325.603546,327.827240 328.521729,325.525513 329.727753,322.834442 C334.200134,312.854889 333.207153,299.899750 322.422791,292.825134 C321.499969,292.219727 321.421204,290.327728 321.281250,289.026611 C322.053314,289.020203 322.494415,289.020630 322.935547,289.021057 C322.935547,289.021057 322.986420,288.992249 323.035400,289.344116 C324.600586,290.836182 326.116791,291.976349 327.632965,293.116516 C327.632965,293.116516 327.894379,293.100311 327.956604,293.490479 C328.379852,294.240967 328.740906,294.601318 329.101959,294.961639 C329.101959,294.961639 329.021088,294.966644 329.052155,295.251160 C329.666260,296.040100 330.249329,296.544556 330.832367,297.049011 z"/>
  <path fill="#965979" opacity="1.000000" stroke="none" d=" M291.126312,375.044373 C285.087158,383.465179 277.637543,386.590607 269.494904,384.363861 C261.416107,382.154572 255.836945,375.297089 255.338211,366.963470 C254.741379,356.990601 258.621338,349.726440 267.033020,346.404144 C273.968842,343.664825 280.828033,344.242065 286.689484,349.331665 C293.215302,354.998077 295.536652,363.458435 292.898407,371.060364 C292.463287,372.314056 291.843933,373.503815 291.126312,375.044373 M276.050049,378.845367 C278.456787,378.236206 281.237091,378.183075 283.177399,376.879608 C285.702728,375.183105 288.965393,372.733459 289.400970,370.179810 C290.196381,365.516632 289.148163,360.539001 288.905518,356.327271 C286.591644,354.956024 284.161957,354.347900 283.261444,352.831635 C280.150452,347.593323 274.959381,348.336182 270.960052,349.380066 C267.595367,350.258331 264.702789,353.809357 262.169281,356.678741 C260.686432,358.358154 260.278961,361.006622 259.458923,363.245239 C258.870331,364.852020 258.399567,366.501984 257.800842,368.367615 C259.840820,368.867676 261.235443,369.209534 261.983398,369.392883 C263.079865,372.192627 263.349640,375.550385 264.960480,376.417908 C267.960297,378.033386 271.740814,378.199280 276.050049,378.845367 z"/>
  <path fill="#692A4B" opacity="1.000000" stroke="none" d=" M463.961731,475.716064 C456.409363,482.760162 447.567566,484.577209 437.938293,481.379181 C427.371735,477.869904 420.351532,470.688232 418.501068,459.450623 C416.485535,447.210358 420.975250,437.483582 431.401337,430.871002 C441.573761,424.419312 454.274689,425.422211 464.701904,433.373657 C464.846588,433.799408 464.761627,434.040466 464.428589,434.069336 C463.040344,434.048981 461.900604,434.243866 460.943329,433.912079 C452.930603,431.134888 444.878265,431.847382 436.597839,432.573853 C431.552704,433.016479 431.320953,437.324036 428.594330,439.473938 C426.126648,441.419769 424.260956,444.806885 423.377899,447.913239 C422.272034,451.803558 422.249237,456.051880 422.159241,460.154449 C422.126434,461.650757 422.973267,463.366547 423.893250,464.639313 C425.504700,466.868713 427.483429,468.832550 429.306488,470.909210 C430.210114,471.938477 431.109741,472.971252 432.252869,474.002960 C432.494568,474.003479 432.978027,474.001221 433.230347,474.012756 C433.650909,474.030792 433.819183,474.037354 434.001495,474.424011 C435.733429,476.026428 437.304382,477.582397 439.194092,478.414429 C448.347443,482.444611 452.411530,480.575012 457.096863,474.798340 C457.414276,474.308746 457.678680,474.123505 458.230957,474.288269 C460.646851,474.013245 462.835632,473.474976 465.270935,472.786133 C466.341156,472.676880 467.164886,472.718231 467.988617,472.759583 C467.754425,473.085480 467.520203,473.411407 466.728882,473.895996 C465.435089,474.608459 464.698425,475.162262 463.961731,475.716064 z"/>
  <path fill="#7C97B5" opacity="1.000000" stroke="none" d=" M458.162628,530.912903 C468.581451,539.321777 466.892548,558.849426 454.047028,567.017883 C444.208740,573.274048 430.314026,571.796021 422.468811,563.553589 C413.985352,554.640625 413.136932,542.290283 420.307739,532.095032 C428.274017,520.768738 445.448181,519.036011 456.273407,528.724976 C453.688965,528.346558 451.353668,527.684509 449.007507,527.011902 C448.996613,527.001343 448.975586,526.981506 448.891174,526.586670 C444.225403,525.807983 439.625610,525.028870 435.072021,525.241028 C433.326752,525.322327 431.686951,527.667114 429.998657,528.989197 C429.998230,528.997925 429.980469,528.997559 429.577698,528.998962 C425.717377,529.339905 418.749573,539.491150 417.895050,544.103760 C416.535736,551.441406 420.458313,556.427246 424.595551,561.412170 C425.314972,562.278992 426.827637,562.487488 428.153442,563.323181 C433.165253,567.731323 439.124023,567.782471 444.603271,566.726868 C448.685547,565.940430 452.990204,563.518127 455.936401,560.567078 C458.040253,558.459717 458.055328,554.267029 459.375854,550.955627 C460.359467,549.022400 461.618561,547.070557 461.430145,545.270203 C461.135986,542.459473 459.860779,539.751526 459.188843,536.820129 C458.591187,536.095581 457.805969,535.550964 457.013611,534.671570 C457.000671,533.890442 456.994843,533.443970 457.020203,532.679565 C457.421814,531.878723 457.792236,531.395813 458.162628,530.912903 z"/>
  <path fill="#985778" opacity="1.000000" stroke="none" d=" M433.100037,497.013916 C437.385956,506.795288 434.244141,516.351562 425.589478,520.730530 C417.418854,524.864685 407.014069,521.684204 402.716339,513.738831 C398.258087,505.496643 400.788605,494.806854 408.331879,490.442047 C414.935516,486.621033 426.965271,485.750916 433.100037,497.013916 M429.008911,498.536835 C428.068542,497.100952 427.197906,494.488129 426.176056,494.427582 C421.032166,494.122772 415.818481,494.208923 410.697083,494.772888 C409.083374,494.950562 406.965088,496.732269 406.299591,498.298889 C402.824432,506.479553 405.073486,512.452087 413.278534,516.039307 C415.978882,517.219910 419.429718,516.589844 422.499481,517.044128 C426.108856,517.578247 428.107117,515.578918 428.513184,512.601990 C429.107971,508.241394 428.911926,503.772919 429.008911,498.536835 z"/>
  <path fill="#96597C" opacity="1.000000" stroke="none" d=" M277.364624,431.312286 C271.701508,449.147461 254.816727,455.228241 240.812698,444.880310 C232.633316,438.836365 229.595413,427.097443 233.749222,417.585968 C238.199677,407.395233 249.150131,402.081116 260.559570,404.575226 C269.959930,406.630096 277.539673,416.088623 277.618591,425.915283 C277.631927,427.574158 277.479248,429.234314 277.364624,431.312286 M265.539917,442.558228 C266.561829,441.677185 267.599823,440.814026 268.601715,439.910797 C270.031281,438.621979 272.207367,437.546600 272.707520,435.953918 C274.374420,430.645905 276.323914,425.106812 273.040558,419.700348 C272.053558,418.075165 269.355774,416.878326 269.296722,415.410583 C269.090515,410.286072 264.444458,410.937347 261.854218,409.437286 C259.048462,407.812378 254.995865,406.492310 252.063736,407.255341 C239.698654,410.473114 233.212601,417.822266 235.731308,431.464905 C236.302261,434.557404 236.696075,437.564423 240.483475,439.371277 C241.678680,439.941437 241.554810,444.444366 245.334900,445.498657 C245.886032,445.647675 246.437149,445.796722 247.741333,445.977966 C248.494827,445.996857 249.248337,446.015747 250.385315,446.702667 C256.034241,449.433319 262.791046,447.728271 265.539917,442.558228 z"/>
  <path fill="#965979" opacity="1.000000" stroke="none" d=" M420.337952,609.403503 C412.337372,611.310486 407.022675,609.460510 402.953796,603.616455 C399.632141,598.845581 399.680023,591.893738 403.070343,586.684937 C406.478394,581.448914 412.366211,579.229675 419.233307,580.592712 C425.024872,581.742310 429.689819,586.966675 430.434631,593.137390 C431.320953,600.480774 428.122498,605.773560 420.337952,609.403503 M417.568756,584.990356 C414.879517,585.210999 410.904938,584.415222 409.762878,585.859375 C407.220398,589.074341 405.990845,593.369934 404.479797,597.322021 C404.181549,598.102112 404.723480,599.633057 405.396210,600.272034 C407.211884,601.996765 409.229767,604.591309 411.307648,604.729248 C415.487427,605.006897 419.855133,606.433472 423.757538,601.688843 C426.098846,598.842224 427.304810,595.530640 426.361633,593.665039 C424.667267,590.313538 424.241730,584.836914 417.568756,584.990356 z"/>
  <path fill="#692A4B" opacity="1.000000" stroke="none" d=" M392.057007,577.707092 C379.391785,590.528748 357.143097,589.803894 344.292694,576.150940 C331.547455,562.609741 332.420746,541.266846 346.585693,529.326721 C346.062714,531.550476 345.573456,533.817871 344.220215,535.292236 C338.379700,541.655396 336.851898,549.311035 338.174072,557.322571 C339.034943,562.539124 340.001831,568.393066 346.022705,571.360229 C347.883942,574.855103 350.198944,577.070435 354.203125,577.111267 C355.447388,577.123901 357.343445,577.986877 357.799805,578.983276 C359.526947,582.754028 362.530304,583.158447 366.048157,583.026001 C369.361542,582.901062 372.683014,582.992249 376.398315,582.992310 C382.197327,580.330078 387.598938,577.663818 393.000275,574.998779 C393.000000,575.000000 393.003662,575.000000 392.999603,575.309509 C392.977509,576.031311 392.959442,576.443542 392.941406,576.855835 C392.941406,576.855835 392.949677,576.972900 392.767487,577.031616 C392.349487,577.243042 392.173401,577.448669 392.057007,577.707092 z"/>
  <path fill="#965979" opacity="1.000000" stroke="none" d=" M238.739471,320.112976 C236.478958,309.175781 241.245682,301.006683 249.930298,300.382751 C256.766022,299.891693 262.364197,303.772156 264.187927,310.265656 C266.054657,316.912292 263.334442,323.609589 257.441254,326.876160 C252.017166,329.882721 244.884933,328.227203 240.534592,322.922058 C239.909424,322.159729 239.406021,321.297516 238.739471,320.112976 M248.736969,305.776672 C246.503738,307.521423 242.975647,308.857147 242.271896,311.085022 C239.833008,318.805878 243.680359,323.317841 251.522156,323.008453 C256.656952,322.805878 260.517731,319.246033 260.813507,313.635742 C261.060120,308.957336 258.455750,306.348297 254.457840,306.635010 C253.403427,305.055450 252.732025,304.049622 252.060608,303.043823 C251.121902,303.827087 250.183197,304.610352 248.736969,305.776672 z"/>
  <path fill="#7C97B5" opacity="1.000000" stroke="none" d=" M337.138184,496.851257 C339.860809,498.459442 340.508514,500.593536 340.307220,503.891998 C339.973145,509.365936 340.392578,514.465759 335.290131,518.568420 C326.610321,525.547424 318.534668,525.309082 310.765808,517.517883 C303.620575,510.352112 305.126099,498.137817 312.770966,492.275269 C319.200958,487.344360 332.085510,486.819641 336.725769,496.550079 C335.518646,496.868622 334.191132,497.070221 333.958893,496.656647 C330.567963,490.618652 324.769165,492.913879 320.159088,493.319611 C317.020874,493.595764 312.789764,495.981598 311.398987,498.649841 C308.215912,504.756683 309.561523,511.057770 314.372803,516.303711 C318.266907,520.549561 323.568085,519.691895 327.898651,518.546204 C332.241699,517.397156 337.136841,514.964050 337.397278,509.095459 C337.577820,505.025909 337.242859,500.933472 337.138184,496.851257 z"/>
  <path fill="#965979" opacity="1.000000" stroke="none" d=" M285.630798,498.614532 C291.628967,499.472229 294.968262,502.750092 296.003906,508.239349 C296.986420,513.446716 295.303406,517.891724 290.976471,520.894409 C286.911316,523.715393 282.487061,523.363647 278.309021,520.855347 C273.854889,518.181335 272.088074,513.019104 273.515625,507.307617 C274.884705,501.830139 278.788300,498.922241 285.630798,498.614532 M279.112915,505.961609 C279.074768,508.368134 278.738861,510.819275 279.090973,513.167297 C279.382172,515.109192 280.207886,518.306946 281.285980,518.524536 C283.744568,519.020752 287.172211,518.853882 288.950348,517.409912 C290.700165,515.988953 291.544250,512.671326 291.587402,510.165314 C291.625183,507.967957 290.001404,505.742004 288.654205,502.391083 C285.702484,503.313629 282.543060,504.301086 279.112915,505.961609 M291.241119,506.176453 C291.408173,506.121002 291.575195,506.065552 291.742249,506.010101 C291.574127,505.956299 291.406006,505.902496 291.241119,506.176453 z"/>
  <path fill="#6E244C" opacity="1.000000" stroke="none" d=" M345.978912,571.006409 C340.001831,568.393066 339.034943,562.539124 338.174072,557.322571 C336.851898,549.311035 338.379700,541.655396 344.220215,535.292236 C345.573456,533.817871 346.062714,531.550476 346.923035,529.268433 C346.896484,528.888794 346.923218,528.940247 347.297607,528.954102 C350.801270,528.788086 353.882172,528.542786 353.992859,524.286865 C354.087158,524.125671 354.181458,523.964417 354.763306,524.046265 C358.683319,523.859070 362.131592,522.975891 365.544830,523.095276 C372.156128,523.326599 378.747650,524.122253 385.347382,524.684021 C385.347382,524.684021 385.157471,524.754028 385.161682,525.058899 C385.445740,526.568542 385.725586,527.773254 385.595093,528.984741 C382.052795,528.065186 378.935486,527.084290 375.782410,526.236389 C374.277771,525.831726 372.714630,525.584106 371.161652,525.430969 C366.540985,524.975403 362.683960,525.494812 358.136292,528.166138 C354.507050,530.298035 350.721649,532.430847 347.572845,535.152832 C342.706879,539.359314 339.808258,544.560120 339.811768,551.598511 C339.815460,558.938660 343.424408,564.709961 345.978912,571.006409 z"/>
  <path fill="#6A2B4F" opacity="1.000000" stroke="none" d=" M464.761597,434.040466 C464.761627,434.040466 464.846588,433.799408 464.885315,433.677795 C476.896423,443.229858 478.393127,459.121613 468.291901,472.647705 C467.164886,472.718231 466.341156,472.676880 465.263580,472.466309 C465.001160,471.869476 464.992584,471.441895 464.991150,470.674683 C464.994385,469.882233 464.990479,469.429413 464.995697,468.655029 C465.012177,467.905029 465.019531,467.476562 465.273621,467.206146 C469.310822,468.957001 469.859955,465.179413 469.727386,463.740326 C468.941101,455.205017 473.813904,445.780212 465.948914,438.233368 C465.044617,437.365692 465.133301,435.463196 464.761597,434.040466 z"/>
  <path fill="#6A2B4F" opacity="1.000000" stroke="none" d=" M322.756531,288.739441 C322.494415,289.020630 322.053314,289.020203 320.843201,289.015442 C310.414734,286.683105 300.765839,286.778625 291.063873,289.069458 C291.000824,289.000641 290.875244,288.862518 290.875244,288.862518 C299.642059,282.144226 311.750458,281.989655 322.756531,288.739441 z"/>
  <path fill="#692A4B" opacity="1.000000" stroke="none" d=" M391.926788,529.076843 C402.844788,537.441589 406.250641,554.266846 399.291199,566.454346 C399.696106,564.555481 400.327850,562.780518 400.974121,560.538086 C400.971619,553.094788 402.131073,545.871033 396.958954,539.946350 C395.738892,538.548767 394.335297,537.311401 393.008606,535.999146 C393.001129,535.997925 393.000000,535.982910 392.994202,535.594910 C392.600616,533.196777 392.212769,531.186584 391.850281,529.151367 C391.875580,529.126343 391.926788,529.076843 391.926788,529.076843 z"/>
  <path fill="#692A4B" opacity="1.000000" stroke="none" d=" M385.202576,524.383789 C378.747650,524.122253 372.156128,523.326599 365.544830,523.095276 C362.131592,522.975891 358.683319,523.859070 355.030426,523.961792 C364.959137,519.303101 375.039948,519.572632 385.202576,524.383789 z"/>
  <path fill="#96597C" opacity="1.000000" stroke="none" d=" M209.007965,280.517120 C206.018005,277.594788 203.028046,274.672485 199.981964,271.410217 C199.925842,271.070251 200.018799,270.984528 200.392303,271.033417 C203.175842,272.720642 205.585846,274.358978 208.103165,276.256653 C208.481262,277.006592 208.752045,277.497131 209.016113,278.304260 C209.008926,279.252899 209.008453,279.885010 209.007965,280.517120 z"/>
  <path fill="#995479" opacity="1.000000" stroke="none" d=" M209.179535,280.728882 C209.008453,279.885010 209.008926,279.252899 209.418610,278.316650 C211.394730,278.345795 213.049530,278.463287 214.509903,279.058136 C217.393524,280.232697 220.169479,281.671631 222.989960,283.001221 C218.909882,282.339691 214.829819,281.678162 210.317047,281.035095 C209.706604,281.015961 209.528839,280.978333 209.179535,280.728882 z"/>
  <path fill="#7F98B9" opacity="1.000000" stroke="none" d=" M458.099121,530.607666 C457.792236,531.395813 457.421814,531.878723 456.637054,532.673462 C453.273285,531.659729 448.606598,532.409058 449.018402,527.022461 C451.353668,527.684509 453.688965,528.346558 456.411133,529.023315 C457.210541,529.459473 457.623077,529.880981 458.099121,530.607666 z"/>
  <path fill="#672549" opacity="1.000000" stroke="none" d=" M284.995880,299.979614 C284.978271,298.175995 284.960632,296.372406 284.951080,294.225098 C285.623169,292.956451 286.287231,292.031525 287.586792,290.954468 C289.137817,290.532837 290.053375,290.263367 290.916504,290.356384 C288.907990,293.805756 286.951935,296.892670 284.995880,299.979614 z"/>
  <path fill="#672549" opacity="1.000000" stroke="none" d=" M400.959564,561.005615 C400.327850,562.780518 399.696106,564.555481 399.041077,566.686890 C399.004639,567.556824 398.991486,568.070251 398.508453,569.022095 C397.668274,570.218811 397.297943,570.977173 396.927673,571.735535 C396.351990,572.714478 395.776306,573.693420 394.621002,574.829468 C393.695496,574.991089 393.349579,574.995544 393.003662,575.000000 C393.003662,575.000000 393.000000,575.000000 393.035858,574.637573 C395.700989,569.851990 398.330292,565.428772 400.959564,561.005615 z"/>
  <path fill="#692A4B" opacity="1.000000" stroke="none" d=" M353.668396,524.410522 C353.882172,528.542786 350.801270,528.788086 347.271881,528.942871 C349.029175,527.456482 351.186554,525.995361 353.668396,524.410522 z"/>
  <path fill="#692A4B" opacity="1.000000" stroke="none" d=" M386.005432,528.978027 C385.725586,527.773254 385.445740,526.568542 385.236511,524.990784 C387.417480,525.904846 389.527771,527.191833 391.782440,528.777832 C391.926788,529.076843 391.875580,529.126343 391.455627,529.091492 C389.694275,529.044312 388.352875,529.031921 386.759888,529.009888 C386.340729,528.992859 386.173065,528.985413 386.005432,528.978027 z"/>
  <path fill="#6A2B4F" opacity="1.000000" stroke="none" d=" M327.585510,292.805115 C326.116791,291.976349 324.600586,290.836182 323.035614,289.373352 C324.503906,290.198364 326.020966,291.346039 327.585510,292.805115 z"/>
  <path fill="#90A3BF" opacity="1.000000" stroke="none" d=" M435.206024,420.154877 C435.708557,419.385315 436.489258,418.697906 437.555603,417.991272 C437.055542,418.727081 436.269897,419.482025 435.206024,420.154877 z"/>
  <path fill="#6A2B4F" opacity="1.000000" stroke="none" d=" M464.254211,475.643738 C464.698425,475.162262 465.435089,474.608459 466.453247,474.025513 C466.005371,474.521362 465.276062,475.046387 464.254211,475.643738 z"/>
  <path fill="#6E244C" opacity="1.000000" stroke="none" d=" M397.121307,571.545166 C397.297943,570.977173 397.668274,570.218811 398.234528,569.296387 C398.058655,569.873169 397.686829,570.613953 397.121307,571.545166 z"/>
  <path fill="#6A2B4F" opacity="1.000000" stroke="none" d=" M330.758636,296.763733 C330.249329,296.544556 329.666260,296.040100 329.072968,295.216370 C329.603455,295.424225 330.144196,295.951355 330.758636,296.763733 z"/>
  <path fill="#6E244C" opacity="1.000000" stroke="none" d=" M392.999603,575.309509 C393.349579,574.995544 393.695496,574.991089 394.300598,574.983643 C394.193817,575.553467 393.827850,576.126221 393.201660,576.777466 C392.959442,576.443542 392.977509,576.031311 392.999603,575.309509 z"/>
  <path fill="#6A2B4F" opacity="1.000000" stroke="none" d=" M290.968933,289.993896 C290.053375,290.263367 289.137817,290.532837 287.859131,290.852295 C288.396942,290.231232 289.297882,289.560272 290.537048,288.875916 C290.875244,288.862518 291.000824,289.000641 291.014191,289.281128 C291.027557,289.561615 290.968933,289.993896 290.968933,289.993896 z"/>
  <path fill="#6E244C" opacity="1.000000" stroke="none" d=" M392.186768,577.840271 C392.173401,577.448669 392.349487,577.243042 392.708984,577.027161 C392.660614,577.300537 392.488556,577.636963 392.186768,577.840271 z"/>
  <path fill="#6A2B4F" opacity="1.000000" stroke="none" d=" M329.084076,294.679199 C328.740906,294.601318 328.379852,294.240967 327.949249,293.621216 C328.275208,293.706787 328.670715,294.051788 329.084076,294.679199 z"/>
  <path fill="#672549" opacity="1.000000" stroke="none" d=" M423.553772,273.465332 C423.587891,273.522003 423.519623,273.408630 423.553772,273.465332 z"/>
  <path fill="#76174B" opacity="1.000000" stroke="none" d=" M228.801163,381.797516 C220.293640,387.085052 212.010239,385.903534 204.179169,381.159363 C200.643295,379.017273 197.605026,375.926666 194.716736,372.907013 C193.604614,371.744293 193.216385,369.611481 193.063477,367.871002 C192.802597,364.901611 193.417557,361.817200 192.905777,358.914948 C191.322922,349.938599 197.478470,345.646729 203.147614,340.905273 C204.291718,339.948364 204.877640,338.349396 205.954605,337.282288 C209.580872,333.689240 220.950043,334.341553 224.870285,337.771057 C229.489792,341.812286 234.550308,345.349121 239.413651,349.112335 C239.906815,349.493927 240.764694,349.924286 240.769089,350.339233 C240.831100,356.218170 242.205185,362.616608 240.318924,367.823151 C238.647461,372.436798 233.301514,375.708984 229.630386,379.622803 C229.221207,380.059021 229.156281,380.818146 228.801163,381.797516 z"/>
  <path fill="#A8467C" opacity="1.000000" stroke="none" d=" M222.995026,283.001099 C220.169479,281.671631 217.393524,280.232697 214.509903,279.058136 C213.049530,278.463287 211.394730,278.345795 209.425323,278.000092 C208.752045,277.497131 208.481262,277.006592 208.379578,276.016113 C208.307053,274.203644 208.524277,272.299744 207.737717,271.689270 C205.374222,269.855011 202.619293,268.525146 200.017059,266.998505 C200.007904,266.557770 199.998764,266.117035 200.244629,265.106720 C199.220627,254.895813 197.504013,245.254272 200.807449,235.646957 C200.947113,235.240753 200.274963,234.555405 199.980988,234.000107 C199.980988,234.000107 199.992996,233.501953 200.348938,233.195786 C203.884094,230.691238 207.992004,229.149643 206.993790,223.996979 C207.098267,223.675415 207.286514,223.414215 208.122009,223.137085 C212.665314,224.622528 214.044098,222.144501 214.993393,218.999390 C214.993393,218.999390 215.000000,219.000000 215.375854,218.999268 C216.830826,218.331741 217.909943,217.664948 218.989075,216.998169 C218.989075,216.998169 218.999481,216.999466 219.436768,216.997620 C222.186340,216.456253 224.476685,215.769241 226.817429,215.421097 C228.910675,215.109741 231.085876,214.911224 233.178406,215.122849 C237.802292,215.590454 242.396912,216.347519 247.003464,216.986511 C249.608017,218.896835 252.102478,220.984390 254.838120,222.683655 C262.453613,227.414078 265.744080,235.362900 267.564789,243.111237 C268.895630,248.774902 267.274780,255.612137 265.336212,261.376953 C264.242767,264.628693 261.388916,267.431152 260.759521,271.304138 C260.588745,272.355072 258.396576,273.114441 257.087860,273.937103 C251.740356,277.298737 246.415665,280.700409 240.985779,283.924347 C239.805801,284.624939 238.226151,284.652466 236.325424,284.596802 C231.546661,283.805695 227.273071,283.407776 222.999466,283.009857 C222.999466,283.009857 223.000107,283.000946 222.995026,283.001099 z" style="opacity: 0.7;"/>
  <path fill="#995479" opacity="1.000000" stroke="none" d=" M199.696747,234.219971 C200.274963,234.555405 200.947113,235.240753 200.807449,235.646957 C197.504013,245.254272 199.220627,254.895813 200.236267,264.776215 C198.676651,261.842834 196.646103,258.762451 196.234528,255.479111 C195.331970,248.279236 195.494202,241.015244 199.696747,234.219971 z"/>
  <path opacity="1.000000" stroke="none" d=" M246.924408,216.613159 C242.396912,216.347519 237.802292,215.590454 233.178406,215.122849 C231.085876,214.911224 228.910675,215.109741 226.817429,215.421097 C224.476685,215.769241 222.186340,216.456253 219.436676,216.992401 C221.728470,215.670975 224.362473,213.528168 227.205887,213.200012 C233.915848,212.425659 240.708344,212.620789 246.924408,216.613159 z" style="fill: rgb(168, 70, 124);"/>
  <path fill="#995479" opacity="1.000000" stroke="none" d=" M206.669739,224.139038 C207.992004,229.149643 203.884094,230.691238 200.355804,232.946716 C201.197525,229.426102 201.921509,225.509109 206.669739,224.139038 z"/>
  <path fill="#995479" opacity="1.000000" stroke="none" d=" M200.009552,267.389587 C202.619293,268.525146 205.374222,269.855011 207.737717,271.689270 C208.524277,272.299744 208.307053,274.203644 208.272278,275.756775 C205.585846,274.358978 203.175842,272.720642 200.439026,270.990845 C200.075500,269.859802 200.038773,268.820251 200.009552,267.389587 z"/>
  <path fill="#995479" opacity="1.000000" stroke="none" d=" M223.089279,283.403625 C227.273071,283.407776 231.546661,283.805695 235.915680,284.595459 C231.733765,284.590637 227.456436,284.194031 223.089279,283.403625 z"/>
  <path fill="#995479" opacity="1.000000" stroke="none" d=" M214.594757,218.998474 C214.044098,222.144501 212.665314,224.622528 208.340134,223.026306 C208.532516,219.286011 211.163071,218.829300 214.594757,218.998474 z"/>
  <path fill="#995479" opacity="1.000000" stroke="none" d=" M218.614258,216.998413 C217.909943,217.664948 216.830826,218.331741 215.375900,218.996033 C216.079880,218.328583 217.159653,217.663620 218.614258,216.998413 z"/>
  <path fill="#7593CC" opacity="1.000000" stroke="none" d=" M369.025085,450.598267 C375.028809,448.468964 380.601288,448.001038 386.500275,451.049774 C392.143127,453.966125 395.253265,458.722748 399.249237,463.157257 C402.467102,466.728210 402.327637,468.498566 401.210236,472.221497 C400.510071,474.554321 401.453583,477.433411 401.864166,480.035126 C402.627258,484.871155 400.625916,487.893982 395.757263,489.026093 C394.976105,489.207733 393.997162,489.287506 393.492004,489.794952 C385.854431,497.466736 375.449249,499.541260 366.219116,494.847046 C364.272003,493.856750 362.854034,491.846313 361.148346,490.356140 C358.813019,488.315948 359.257233,484.893463 356.131134,482.743225 C350.575714,478.922058 353.554840,472.304901 353.115509,466.835876 C353.081665,466.414276 353.380096,465.724365 353.722900,465.549957 C360.099426,462.305817 362.336121,454.690674 368.669464,451.416595 C368.788422,451.355072 368.822235,451.128784 369.025085,450.598267 z"/>
  <path fill="#A7467C" opacity="1.000000" stroke="none" d=" M387.382141,611.555115 C389.341431,613.071411 391.332214,614.125488 392.515717,615.763062 C394.538330,618.561646 395.915070,621.817932 397.819672,624.713135 C400.148743,628.253784 400.686096,638.025024 398.213287,641.018372 C397.561188,641.807739 395.924744,641.783936 394.444275,642.220886 C395.458038,647.708069 390.410492,649.628906 387.174164,653.262512 C382.547119,658.457397 377.267365,656.967590 372.119354,656.839844 C368.675812,656.754395 365.269348,655.173889 361.365143,654.134277 C361.703674,649.044800 357.834015,648.668152 355.044312,648.866699 C352.736450,646.492493 351.108185,645.064880 349.778351,643.398987 C346.803009,639.671936 346.632935,630.159790 349.126892,625.809875 C349.839966,624.566223 349.756042,622.885864 350.373199,621.562256 C351.374603,619.414429 352.183899,616.817993 353.898407,615.425964 C360.152466,610.348267 366.579132,604.948608 375.538879,607.090149 C379.490173,608.034607 383.220093,609.905212 387.382141,611.555115 z"/>
  <path fill="#A7467A" opacity="1.000000" stroke="none" d=" M289.018768,456.182312 C289.923126,452.620422 289.473480,448.650421 294.251312,448.015167 C294.889282,447.930328 295.801056,446.498169 295.811523,445.680023 C295.861298,441.788422 298.675385,440.466156 301.564514,439.831085 C309.727417,438.036713 317.847046,437.704468 324.637360,443.789276 C326.772858,445.702911 328.506897,448.135803 330.103851,450.543762 C330.728577,451.485779 330.614227,453.018341 330.561829,454.270477 C330.531555,454.994080 329.542877,455.801300 329.694763,456.386902 C330.294159,458.697815 332.337982,461.342407 331.717194,463.119629 C330.254364,467.307739 328.138275,471.586548 325.186432,474.826477 C323.132843,477.080414 319.351349,478.410553 316.166748,478.832611 C311.259064,479.483032 306.184082,479.232117 301.217957,478.859161 C299.742920,478.748352 298.319214,477.030457 297.024292,475.877899 C296.469513,475.384094 296.449310,473.941467 295.939850,473.796661 C286.558258,471.129852 288.572906,463.798981 288.993927,457.111359 C289.004364,456.945435 288.998352,456.778473 289.018768,456.182312 z"/>
  <path fill="#A6477B" opacity="1.000000" stroke="none" d=" M308.997437,550.002441 C312.168518,551.350647 312.761871,553.851990 313.148682,557.122681 C313.919525,563.639954 311.785980,569.142761 308.734436,574.556152 C306.068329,579.285645 298.797760,582.254761 292.770569,580.718445 C288.502441,579.630554 283.944580,578.784912 280.264648,576.581116 C277.566315,574.965149 275.742554,571.507446 274.120697,568.546387 C269.076935,559.338257 273.304382,548.262024 283.918518,543.874390 C285.403229,543.490112 286.213745,543.236511 287.024292,542.982910 C287.457458,542.981567 287.890656,542.980225 289.111328,542.986694 C293.698761,543.201294 297.498291,543.518127 301.299042,543.534241 C302.199524,543.538086 303.104309,542.532776 304.007111,541.991699 C304.592773,542.486084 305.178406,542.980469 305.882446,544.160034 C306.322632,546.957703 304.783051,550.151794 308.997437,550.002441 z"/>
  <path fill="#A74779" opacity="1.000000" stroke="none" d=" M303.752930,541.712463 C303.104309,542.532776 302.199524,543.538086 301.299042,543.534241 C297.498291,543.518127 293.698761,543.201294 289.436188,542.986206 C289.511871,539.141113 293.083801,537.696289 297.629364,539.420044 C299.562317,540.153076 301.540924,540.765808 303.752930,541.712463 z"/>
  <path fill="#A74779" opacity="1.000000" stroke="none" d=" M309.000977,549.612061 C304.783051,550.151794 306.322632,546.957703 306.001953,544.427490 C307.003540,545.747070 308.003998,547.484375 309.000977,549.612061 z"/>
  <path fill="#A74779" opacity="1.000000" stroke="none" d=" M286.961670,542.641968 C286.213745,543.236511 285.403229,543.490112 284.293884,543.864868 C284.065704,541.877686 284.271729,540.002808 286.961670,542.641968 z"/>
  <path fill="#76174B" opacity="1.000000" stroke="none" d=" M290.916504,290.356384 C290.968933,289.993896 291.027557,289.561615 291.077240,289.349945 C300.765839,286.778625 310.414734,286.683105 320.512299,289.022217 C321.421204,290.327728 321.499969,292.219727 322.422791,292.825134 C333.207153,299.899750 334.200134,312.854889 329.727753,322.834442 C328.521729,325.525513 325.603546,327.827240 322.936157,329.400574 C318.458282,332.041992 313.712433,334.504639 308.761047,335.958740 C306.033508,336.759796 302.618286,335.537628 299.580841,334.903229 C291.655518,333.247894 284.099792,323.719940 282.792877,315.843750 C281.882080,310.354950 282.222137,305.504425 284.848572,300.327393 C286.951935,296.892670 288.907990,293.805756 290.916504,290.356384 z"/>
  <path fill="#A74779" opacity="1.000000" stroke="none" d=" M275.623230,378.906952 C271.740814,378.199280 267.960297,378.033386 264.960480,376.417908 C263.349640,375.550385 263.079865,372.192627 261.983398,369.392883 C261.235443,369.209534 259.840820,368.867676 257.800842,368.367615 C258.399567,366.501984 258.870331,364.852020 259.458923,363.245239 C260.278961,361.006622 260.686432,358.358154 262.169281,356.678741 C264.702789,353.809357 267.595367,350.258331 270.960052,349.380066 C274.959381,348.336182 280.150452,347.593323 283.261444,352.831635 C284.161957,354.347900 286.591644,354.956024 288.905518,356.327271 C289.148163,360.539001 290.196381,365.516632 289.400970,370.179810 C288.965393,372.733459 285.702728,375.183105 283.177399,376.879608 C281.237091,378.183075 278.456787,378.236206 275.623230,378.906952 z"/>
  <path fill="#77184C" opacity="1.000000" stroke="none" d=" M464.986572,468.976562 C464.990479,469.429413 464.994385,469.882233 464.638947,470.731445 C462.187714,472.093536 460.095795,473.059296 458.003906,474.025055 C457.678680,474.123505 457.414276,474.308746 456.683105,474.793213 C448.598999,478.538239 441.353760,474.895416 433.987427,474.043945 C433.819183,474.037354 433.650909,474.030792 433.147766,473.845795 C432.545654,473.779022 432.278381,473.890747 432.011139,474.002441 C431.109741,472.971252 430.210114,471.938477 429.306488,470.909210 C427.483429,468.832550 425.504700,466.868713 423.893250,464.639313 C422.973267,463.366547 422.126434,461.650757 422.159241,460.154449 C422.249237,456.051880 422.272034,451.803558 423.377899,447.913239 C424.260956,444.806885 426.126648,441.419769 428.594330,439.473938 C431.320953,437.324036 431.552704,433.016479 436.597839,432.573853 C444.878265,431.847382 452.930603,431.134888 460.943329,433.912079 C461.900604,434.243866 463.040344,434.048981 464.428558,434.069336 C465.133301,435.463196 465.044617,437.365692 465.948914,438.233368 C473.813904,445.780212 468.941101,455.205017 469.727386,463.740326 C469.859955,465.179413 469.310822,468.957001 465.218140,466.890930 C464.375488,466.270325 463.835022,466.122925 463.294525,465.975525 C463.858551,466.975861 464.422577,467.976196 464.986572,468.976562 z"/>
  <path fill="#6E244C" opacity="1.000000" stroke="none" d=" M434.001495,474.424011 C441.353760,474.895416 448.598999,478.538239 456.569275,475.010773 C452.411530,480.575012 448.347443,482.444611 439.194092,478.414429 C437.304382,477.582397 435.733429,476.026428 434.001495,474.424011 z"/>
  <path fill="#6E244C" opacity="1.000000" stroke="none" d=" M458.230957,474.288269 C460.095795,473.059296 462.187714,472.093536 464.631775,471.071045 C464.992584,471.441895 465.001160,471.869476 465.017090,472.616882 C462.835632,473.474976 460.646851,474.013245 458.230957,474.288269 z"/>
  <path fill="#6E244C" opacity="1.000000" stroke="none" d=" M432.252869,474.002960 C432.278381,473.890747 432.545654,473.779022 432.895447,473.834290 C432.978027,474.001221 432.494568,474.003479 432.252869,474.002960 z"/>
  <path fill="#7593CC" opacity="1.000000" stroke="none" d=" M449.007507,527.011902 C448.606598,532.409058 453.273285,531.659729 456.605835,532.991394 C456.994843,533.443970 457.000671,533.890442 457.007233,535.001770 C457.007751,536.107056 457.007538,536.547424 457.004822,537.414185 C457.669037,542.228638 458.335724,546.616760 459.002441,551.004883 C458.055328,554.267029 458.040253,558.459717 455.936401,560.567078 C452.990204,563.518127 448.685547,565.940430 444.603271,566.726868 C439.124023,567.782471 433.165253,567.731323 428.156616,562.954651 C427.074829,560.758240 426.311768,559.141785 425.236359,557.770386 C422.392670,554.143921 420.449615,544.556519 422.033997,542.044739 C424.750336,537.738220 427.338470,533.350952 429.980469,528.997559 C429.980469,528.997559 429.998230,528.997925 430.416321,528.994019 C436.881500,528.320618 442.928528,527.651062 448.975586,526.981506 C448.975586,526.981506 448.996613,527.001343 449.007507,527.011902 z"/>
  <path fill="#7F98B9" opacity="1.000000" stroke="none" d=" M429.577698,528.998962 C427.338470,533.350952 424.750336,537.738220 422.033997,542.044739 C420.449615,544.556519 422.392670,554.143921 425.236359,557.770386 C426.311768,559.141785 427.074829,560.758240 427.977112,562.631470 C426.827637,562.487488 425.314972,562.278992 424.595551,561.412170 C420.458313,556.427246 416.535736,551.441406 417.895050,544.103760 C418.749573,539.491150 425.717377,529.339905 429.577698,528.998962 z"/>
  <path fill="#7F98B9" opacity="1.000000" stroke="none" d=" M448.891174,526.586670 C442.928528,527.651062 436.881500,528.320618 430.416779,528.985352 C431.686951,527.667114 433.326752,525.322327 435.072021,525.241028 C439.625610,525.028870 444.225403,525.807983 448.891174,526.586670 z"/>
  <path fill="#7393C8" opacity="1.000000" stroke="none" d=" M459.375854,550.955627 C458.335724,546.616760 457.669037,542.228638 457.337036,537.417786 C458.114899,536.996704 458.558075,536.998352 459.001221,537.000000 C459.860779,539.751526 461.135986,542.459473 461.430145,545.270203 C461.618561,547.070557 460.359467,549.022400 459.375854,550.955627 z"/>
  <path fill="#7F98B9" opacity="1.000000" stroke="none" d=" M459.188812,536.820129 C458.558075,536.998352 458.114899,536.996704 457.339539,536.991455 C457.007538,536.547424 457.007751,536.107056 457.014343,535.336487 C457.805969,535.550964 458.591187,536.095581 459.188812,536.820129 z"/>
  <path fill="#A74779" opacity="1.000000" stroke="none" d=" M429.030884,498.943634 C428.911926,503.772919 429.107971,508.241394 428.513184,512.601990 C428.107117,515.578918 426.108856,517.578247 422.499481,517.044128 C419.429718,516.589844 415.978882,517.219910 413.278534,516.039307 C405.073486,512.452087 402.824432,506.479553 406.299591,498.298889 C406.965088,496.732269 409.083374,494.950562 410.697083,494.772888 C415.818481,494.208923 421.032166,494.122772 426.176056,494.427582 C427.197906,494.488129 428.068542,497.100952 429.030884,498.943634 z"/>
  <path fill="#A7467A" opacity="1.000000" stroke="none" d=" M245.000366,445.015808 C241.554810,444.444366 241.678680,439.941437 240.483475,439.371277 C236.696075,437.564423 236.302261,434.557404 235.731308,431.464905 C233.212601,417.822266 239.698654,410.473114 252.063736,407.255341 C254.995865,406.492310 259.048462,407.812378 261.854218,409.437286 C264.444458,410.937347 269.090515,410.286072 269.296722,415.410583 C269.355774,416.878326 272.053558,418.075165 273.040558,419.700348 C276.323914,425.106812 274.374420,430.645905 272.707520,435.953918 C272.207367,437.546600 270.031281,438.621979 268.601715,439.910797 C267.599823,440.814026 266.561829,441.677185 264.882935,442.789673 C259.484558,444.025604 254.743195,445.030121 250.001831,446.034668 C249.248337,446.015747 248.494827,445.996857 247.195831,445.725708 C246.100357,445.320892 245.550369,445.168335 245.000366,445.015808 z"/>
  <path fill="#995479" opacity="1.000000" stroke="none" d=" M250.193573,446.368652 C254.743195,445.030121 259.484558,444.025604 264.614990,443.017395 C262.791046,447.728271 256.034241,449.433319 250.193573,446.368652 z"/>
  <path fill="#995479" opacity="1.000000" stroke="none" d=" M245.167633,445.257202 C245.550369,445.168335 246.100357,445.320892 246.819305,445.709595 C246.437149,445.796722 245.886032,445.647675 245.167633,445.257202 z"/>
  <path fill="#A74779" opacity="1.000000" stroke="none" d=" M417.986084,584.991699 C424.241730,584.836914 424.667267,590.313538 426.361633,593.665039 C427.304810,595.530640 426.098846,598.842224 423.757538,601.688843 C419.855133,606.433472 415.487427,605.006897 411.307648,604.729248 C409.229767,604.591309 407.211884,601.996765 405.396210,600.272034 C404.723480,599.633057 404.181549,598.102112 404.479797,597.322021 C405.990845,593.369934 407.220398,589.074341 409.762878,585.859375 C410.904938,584.415222 414.879517,585.210999 417.986084,584.991699 z"/>
  <path fill="#77174C" opacity="1.000000" stroke="none" d=" M385.595093,528.984741 C386.173065,528.985413 386.340729,528.992859 386.795532,529.364258 C389.055145,531.813049 391.027588,533.898010 393.000000,535.982910 C393.000000,535.982910 393.001129,535.997925 393.011414,536.399780 C393.922607,539.337402 394.793396,541.884399 395.734253,544.405273 C396.443359,546.305115 397.788086,548.141174 397.894623,550.058716 C398.170410,555.021179 398.672241,560.084656 395.058197,564.435547 C392.641998,567.344360 391.023651,570.955444 388.442688,573.678284 C384.873444,577.443726 378.543488,577.697144 376.000946,582.988342 C372.683014,582.992249 369.361542,582.901062 366.048157,583.026001 C362.530304,583.158447 359.526947,582.754028 357.799805,578.983276 C357.343445,577.986877 355.447388,577.123901 354.203125,577.111267 C350.198944,577.070435 347.883942,574.855103 346.022705,571.360229 C343.424408,564.709961 339.815460,558.938660 339.811768,551.598511 C339.808258,544.560120 342.706879,539.359314 347.572845,535.152832 C350.721649,532.430847 354.507050,530.298035 358.136292,528.166138 C362.683960,525.494812 366.540985,524.975403 371.161652,525.430969 C372.714630,525.584106 374.277771,525.831726 375.782410,526.236389 C378.935486,527.084290 382.052795,528.065186 385.595093,528.984741 z"/>
  <path fill="#6E244C" opacity="1.000000" stroke="none" d=" M376.398315,582.992310 C378.543488,577.697144 384.873444,577.443726 388.442688,573.678284 C391.023651,570.955444 392.641998,567.344360 395.058197,564.435547 C398.672241,560.084656 398.170410,555.021179 397.894623,550.058716 C397.788086,548.141174 396.443359,546.305115 395.734253,544.405273 C394.793396,541.884399 393.922607,539.337402 393.018890,536.401001 C394.335297,537.311401 395.738892,538.548767 396.958954,539.946350 C402.131073,545.871033 400.971619,553.094788 400.974121,560.538086 C398.330292,565.428772 395.700989,569.851990 393.036133,574.636353 C387.598938,577.663818 382.197327,580.330078 376.398315,582.992310 z"/>
  <path fill="#A6477B" opacity="1.000000" stroke="none" d=" M248.990723,305.585144 C250.183197,304.610352 251.121902,303.827087 252.060608,303.043823 C252.732025,304.049622 253.403427,305.055450 254.457840,306.635010 C258.455750,306.348297 261.060120,308.957336 260.813507,313.635742 C260.517731,319.246033 256.656952,322.805878 251.522156,323.008453 C243.680359,323.317841 239.833008,318.805878 242.271896,311.085022 C242.975647,308.857147 246.503738,307.521423 248.990723,305.585144 z"/>
  <path fill="#7393C8" opacity="1.000000" stroke="none" d=" M337.069550,496.924194 C337.242859,500.933472 337.577820,505.025909 337.397278,509.095459 C337.136841,514.964050 332.241699,517.397156 327.898651,518.546204 C323.568085,519.691895 318.266907,520.549561 314.372803,516.303711 C309.561523,511.057770 308.215912,504.756683 311.398987,498.649841 C312.789764,495.981598 317.020874,493.595764 320.159088,493.319611 C324.769165,492.913879 330.567963,490.618652 333.958893,496.656647 C334.191132,497.070221 335.518646,496.868622 336.742249,496.906982 C337.147705,496.860809 337.000916,496.997162 337.069550,496.924194 z"/>
  <path fill="#A74779" opacity="1.000000" stroke="none" d=" M279.248291,505.625061 C282.543060,504.301086 285.702484,503.313629 288.654205,502.391083 C290.001404,505.742004 291.625183,507.967957 291.587402,510.165314 C291.544250,512.671326 290.700165,515.988953 288.950348,517.409912 C287.172211,518.853882 283.744568,519.020752 281.285980,518.524536 C280.207886,518.306946 279.382172,515.109192 279.090973,513.167297 C278.738861,510.819275 279.074768,508.368134 279.248291,505.625061 z"/>
  <path fill="#A74779" opacity="1.000000" stroke="none" d=" M291.239502,506.012573 C291.406006,505.902496 291.574127,505.956299 291.742249,506.010101 C291.575195,506.065552 291.408173,506.121002 291.239502,506.012573 z"/>
  <path fill="#6E244C" opacity="1.000000" stroke="none" d=" M464.995697,468.655029 C464.422577,467.976196 463.858551,466.975861 463.294525,465.975525 C463.835022,466.122925 464.375488,466.270325 464.971436,466.732910 C465.019531,467.476562 465.012177,467.905029 464.995697,468.655029 z"/>
  <path fill="#76174B" opacity="1.000000" stroke="none" d=" M464.994507,487.004272 C464.870850,486.863617 464.752655,486.718658 464.634491,486.573700 C464.721039,486.621399 464.807587,486.669098 464.951416,486.852753 C465.008698,486.988739 465.000000,487.000000 464.994507,487.004272 z"/>
  <path fill="#6E244C" opacity="1.000000" stroke="none" d=" M392.994202,535.594910 C391.027588,533.898010 389.055145,531.813049 387.047089,529.373840 C388.352875,529.031921 389.694275,529.044312 391.430328,529.116577 C392.212769,531.186584 392.600616,533.196777 392.994202,535.594910 z"/>
  <path fill="#672549" opacity="1.000000" stroke="none" d=" M548.003418,336.004425 C547.912354,336.042236 547.817871,336.075623 547.857178,336.051056 C547.990967,335.993134 548.000000,336.000000 548.003418,336.004425 z"/>
  <ellipse style="stroke: rgb(0, 0, 0); fill: rgb(167, 71, 121);" cx="230.366" cy="248.829" rx="41.286" ry="40.809"/>
  <ellipse style="stroke: rgb(0, 0, 0); fill: rgb(118, 23, 75);" cx="216.25" cy="359.779" rx="28.59" ry="29.115"/>
  <ellipse style="stroke: rgb(0, 0, 0); fill: rgb(118, 23, 75);" cx="307.044" cy="311.666" rx="28.59" ry="29.115"/>
  <ellipse style="stroke: rgb(0, 0, 0); fill: rgb(118, 23, 75);" cx="446.367" cy="454.887" rx="27.588" ry="27.11"/>
  <ellipse style="stroke: rgb(0, 0, 0); fill: rgb(118, 23, 75);" cx="368.854" cy="553.745" rx="33.602" ry="32.79"/>
  <ellipse style="stroke: rgb(0, 0, 0); fill: rgb(167, 71, 121);" cx="255.21" cy="426.508" rx="23.626" ry="23.006"/>
  <ellipse style="stroke: rgb(0, 0, 0); fill: rgb(167, 71, 121);" cx="310.194" cy="460.014" rx="25.391" ry="24.914"/>
  <ellipse style="stroke: rgb(0, 0, 0); fill: rgb(167, 71, 121);" cx="275.136" cy="364.269" rx="19.736" ry="19.76"/>
  <ellipse style="stroke: rgb(0, 0, 0); fill: rgb(167, 71, 121);" cx="251.248" cy="312.817" rx="14.558" ry="14.748"/>
  <ellipse style="stroke: rgb(0, 0, 0); fill: rgb(167, 71, 121);" cx="285.327" cy="509.94" rx="13.889" ry="13.746"/>
  <ellipse style="stroke: rgb(0, 0, 0); fill: rgb(167, 71, 121);" cx="415.295" cy="594.469" rx="15.225" ry="15.082"/>
  <ellipse style="stroke: rgb(0, 0, 0); fill: rgb(167, 71, 121);" cx="417.967" cy="505.262" rx="17.229" ry="16.752"/>
  <ellipse style="stroke: rgb(0, 0, 0); fill: rgb(167, 71, 121);" cx="293.346" cy="560.724" rx="24.58" ry="24.103"/>
  <ellipse style="stroke: rgb(0, 0, 0); fill: rgb(115, 147, 200);" cx="323.75" cy="505.931" rx="17.231" ry="16.419"/>
  <ellipse style="stroke: rgb(0, 0, 0); fill: rgb(115, 147, 200);" cx="439.351" cy="547.025" rx="24.581" ry="23.769"/>
  <ellipse style="stroke: rgb(0, 0, 0); fill: rgb(115, 147, 200);" cx="377.875" cy="473.856" rx="28.591" ry="28.112"/>
  <ellipse style="stroke: rgb(0, 0, 0); fill: rgb(167, 71, 121);" cx="372.988" cy="631.249" rx="29.895" ry="29.418"/>
  <ellipse style="stroke: rgb(0, 0, 0); fill: rgb(167, 71, 121);" cx="363.341" cy="388.585" rx="41.286" ry="40.809"/>
  <ellipse style="stroke: rgb(0, 0, 0); fill: rgb(167, 71, 121);" cx="468.584" cy="259.119" rx="41.286" ry="40.809"/>
  <ellipse style="stroke: rgb(0, 0, 0); fill: rgb(118, 23, 75);" cx="455.22" cy="376.056" rx="28.59" ry="29.115"/>
  <ellipse style="stroke: rgb(0, 0, 0); fill: rgb(115, 147, 200);" cx="378.376" cy="306.729" rx="28.591" ry="28.112"/>
  <ellipse style="stroke: rgb(0, 0, 0); fill: rgb(167, 71, 121);" cx="489.883" cy="505.104" rx="22.491" ry="22.015"/>
  <ellipse style="stroke: rgb(0, 0, 0); fill: rgb(115, 147, 200);" cx="516.194" cy="330.951" rx="28.591" ry="28.112"/>
  <ellipse style="stroke: rgb(0, 0, 0); fill: rgb(115, 147, 200);" cx="154.524" cy="358.515" rx="19.821" ry="19.342"/>
  <ellipse style="stroke: rgb(0, 0, 0); fill: rgb(167, 71, 121);" cx="178.33" cy="425.754" rx="30.726" ry="30.106"/>
  <ellipse style="stroke: rgb(0, 0, 0); fill: rgb(115, 147, 200);" cx="225.104" cy="498.84" rx="34.354" ry="33.96"/>
  <ellipse style="stroke: rgb(0, 0, 0); fill: rgb(118, 23, 75);" cx="178.329" cy="303.806" rx="17.314" ry="16.168"/>
  <ellipse style="stroke: rgb(0, 0, 0); fill: rgb(118, 23, 75);" cx="323.666" cy="602.83" rx="9.797" ry="9.82"/>
  <ellipse style="stroke: rgb(0, 0, 0); fill: rgb(115, 147, 200);" cx="529.559" cy="421.671" rx="39.449" ry="40.223"/>
  <ellipse style="stroke: rgb(0, 0, 0); fill: rgb(167, 71, 121);" cx="436.009" cy="318.097" rx="13.053" ry="12.66"/>
  <ellipse style="stroke: rgb(0, 0, 0); fill: rgb(167, 71, 121);" cx="562.135" cy="366.125" rx="10.548" ry="10.572"/>
  <ellipse style="stroke: rgb(0, 0, 0); fill: rgb(167, 71, 121);" cx="535.406" cy="283.434" rx="10.548" ry="10.572"/>
  <ellipse style="stroke: rgb(0, 0, 0); fill: rgb(167, 71, 121);" cx="578.423" cy="310.998" rx="14.307" ry="13.913"/>
  <ellipse style="stroke: rgb(0, 0, 0); fill: rgb(167, 71, 121);" cx="130.302" cy="318.515" rx="10.548" ry="10.572"/>
  <ellipse style="stroke: rgb(0, 0, 0); fill: rgb(115, 147, 200);" cx="151.602" cy="264.223" rx="13.556" ry="12.66"/>
</svg>